<?xml version="1.0" encoding="UTF-8" standalone="no"?>
<!DOCTYPE svg PUBLIC "-//W3C//DTD SVG 1.1//EN" "http://www.w3.org/Graphics/SVG/1.1/DTD/svg11.dtd">
<svg xmlns="http://www.w3.org/2000/svg" version="1.1" viewBox="0.00 0.00 1403.00 1494.00">
<g stroke-width="2.00" fill="none" stroke-linecap="butt">
<path stroke="#f7b060" vector-effect="non-scaling-stroke" d="
  M 1232.23 586.57
  Q 1220.74 572.56 1209.48 558.82
  Q 1207.76 556.73 1206.95 554.15
  Q 1200.27 532.86 1193.66 511.50
  A 1.49 1.46 47.7 0 1 1193.70 510.50
  L 1243.90 388.44
  A 5.62 5.56 -35.6 0 0 1244.32 385.99
  L 1232.95 156.84
  A 0.25 0.24 65.5 0 0 1232.53 156.68
  L 1168.82 224.59
  A 6.17 6.01 -83.2 0 1 1167.57 225.60
  L 986.63 335.09
  A 0.32 0.32 0.0 0 1 986.15 334.86
  L 977.26 265.80"
/>
<path stroke="#f4c2a0" vector-effect="non-scaling-stroke" d="
  M 1209.24 628.38
  L 1203.53 637.88"
/>
<path stroke="#f7b060" vector-effect="non-scaling-stroke" d="
  M 1203.53 637.88
  Q 1200.85 640.42 1199.15 643.67
  Q 1198.11 645.64 1195.42 643.94"
/>
<path stroke="#f39f58" vector-effect="non-scaling-stroke" d="
  M 1195.42 643.94
  L 1195.70 580.80
  A 1.39 1.37 22.2 0 0 1195.26 579.77
  L 1165.56 552.31"
/>
<path stroke="#ec8156" vector-effect="non-scaling-stroke" d="
  M 1165.56 552.31
  L 1228.87 389.14
  Q 1229.31 387.98 1229.22 386.75
  L 1215.63 198.01
  Q 1215.58 197.24 1215.01 197.76
  Q 1194.17 216.94 1173.39 236.24
  Q 1169.67 239.70 1165.34 242.34
  Q 1069.94 300.57 974.50 358.71
  Q 966.62 363.51 963.47 365.27"
/>
<path stroke="#f39f58" vector-effect="non-scaling-stroke" d="
  M 963.47 365.27
  C 957.88 360.13 952.57 354.80 946.45 350.35
  Q 918.46 329.98 890.45 309.64
  Q 890.19 309.45 890.15 309.12
  Q 890.12 308.91 889.92 308.69"
/>
<path stroke="#f4c2a0" vector-effect="non-scaling-stroke" d="
  M 889.92 308.69
  L 898.29 304.38"
/>
<path stroke="#f9d6b0" vector-effect="non-scaling-stroke" d="
  M 887.20 307.30
  Q 888.66 308.58 889.92 308.69"
/>
<path stroke="#fcc470" vector-effect="non-scaling-stroke" d="
  M 1195.42 643.94
  L 1195.95 654.09"
/>
<path stroke="#f9d6b0" vector-effect="non-scaling-stroke" d="
  M 1195.95 654.09
  C 1195.70 655.85 1195.33 657.52 1195.32 659.33
  Q 1195.24 682.11 1194.91 704.62"
/>
<path stroke="#f0965b" vector-effect="non-scaling-stroke" d="
  M 1194.91 704.62
  L 1139.83 720.98
  Q 1139.34 721.12 1139.07 721.56
  L 1119.41 753.22
  Q 1119.19 753.56 1119.35 753.93
  L 1130.00 779.74
  A 1.08 1.05 -0.9 0 0 1130.65 780.35
  L 1203.43 804.72"
/>
<path stroke="#f9d6b0" vector-effect="non-scaling-stroke" d="
  M 1203.43 804.72
  Q 1203.57 804.79 1203.38 805.18
  Q 1203.19 805.54 1203.27 805.95
  Q 1208.43 831.66 1213.60 857.37
  C 1215.01 864.36 1216.09 871.79 1217.35 878.99"
/>
<path stroke="#f4d1a8" vector-effect="non-scaling-stroke" d="
  M 1217.35 878.99
  Q 1217.47 880.05 1217.97 880.03"
/>
<path stroke="#f4d1a8" vector-effect="non-scaling-stroke" d="
  M 1218.64 887.06
  L 1225.91 931.61
  Q 1226.04 932.38 1226.62 931.87
  L 1227.55 931.06
  Q 1227.95 930.71 1228.43 930.93
  L 1254.56 942.90"
/>
<path stroke="#e2c09a" vector-effect="non-scaling-stroke" d="
  M 1234.31 983.47
  L 1184.27 943.53
  Q 1183.43 942.86 1182.37 942.70
  Q 1082.45 927.52 981.97 912.27
  Q 978.50 911.74 975.05 912.25
  Q 962.61 914.06 950.20 915.90
  Q 949.94 915.93 949.83 915.84
  Q 949.70 915.72 949.61 915.48"
/>
<path stroke="#f9d6b0" vector-effect="non-scaling-stroke" d="
  M 949.61 915.48
  L 951.73 909.40"
/>
<path stroke="#965a38" vector-effect="non-scaling-stroke" d="
  M 951.73 909.40
  L 1050.26 896.02
  Q 1050.95 895.92 1050.83 895.25
  Q 1042.94 848.89 1035.13 803.35
  Q 1033.45 793.53 1031.36 783.72
  Q 1021.44 737.05 1011.59 690.40
  A 0.49 0.48 84.1 0 0 1011.12 690.01
  L 893.99 690.25"
/>
<path stroke="#f0965b" vector-effect="non-scaling-stroke" d="
  M 820.11 635.69
  Q 821.00 635.02 823.26 635.45
  Q 923.68 654.54 1023.84 673.58
  A 4.27 4.22 66.9 0 1 1025.43 674.23
  Q 1062.99 699.82 1100.65 725.50
  Q 1100.76 725.58 1100.85 725.56
  Q 1100.99 725.54 1101.08 725.40
  Q 1101.20 725.21 1101.05 725.06
  L 1033.87 657.19
  Q 1033.52 656.84 1033.04 656.76
  L 818.27 621.41
  A 0.91 0.90 21.4 0 0 817.38 621.79
  L 811.93 629.83"
/>
<path stroke="#f19566" vector-effect="non-scaling-stroke" d="
  M 1165.56 552.31
  L 963.47 365.27"
/>
<path stroke="#f5f4f0" vector-effect="non-scaling-stroke" d="
  M 1239.47 850.28
  C 1238.79 850.97 1238.61 851.85 1238.08 852.52
  Q 1228.82 864.15 1219.72 875.92
  C 1219.13 876.68 1219.08 877.45 1218.89 878.39
  A 0.66 0.66 0.0 0 1 1218.31 878.91
  L 1217.35 878.99"
/>
<path stroke="#f1b9a3" vector-effect="non-scaling-stroke" d="
  M 1203.43 804.72
  Q 1203.76 804.35 1203.69 804.00
  Q 1199.21 783.31 1195.33 762.49
  Q 1194.36 757.32 1194.62 754.50
  Q 1196.85 729.74 1194.91 704.62"
/>
<path stroke="#fce6b8" vector-effect="non-scaling-stroke" d="
  M 1195.95 654.09
  L 1203.53 637.88"
/>
<path stroke="#f9d6b0" vector-effect="non-scaling-stroke" d="
  M 820.75 296.64
  L 712.78 306.81
  Q 710.51 307.02 712.77 307.33
  L 860.23 327.44
  A 0.22 0.22 0.0 0 1 860.27 327.87
  L 756.06 364.13
  Q 755.59 364.30 755.47 364.78
  L 719.69 508.16
  Q 719.37 509.44 720.13 508.36
  L 771.43 435.95
  Q 772.20 434.87 771.98 436.17
  C 765.37 474.91 758.45 514.03 753.09 553.16
  C 752.59 556.81 752.78 560.73 752.53 564.54
  Q 752.32 567.93 752.97 570.88
  Q 755.49 582.33 757.94 593.73
  Q 758.04 594.19 758.47 594.38
  Q 764.63 597.13 771.79 601.94
  Q 796.01 618.19 811.93 629.83"
/>
<path stroke="#f1b9a3" vector-effect="non-scaling-stroke" d="
  M 811.93 629.83
  L 770.58 690.51
  Q 770.53 690.58 770.60 690.62
  Q 770.64 690.63 770.67 690.63
  Q 770.72 690.63 770.78 690.56
  Q 794.69 663.12 818.66 635.72
  Q 818.97 635.37 819.29 635.22
  Q 820.24 634.77 820.11 635.69"
/>
<path stroke="#f9d6b0" vector-effect="non-scaling-stroke" d="
  M 820.11 635.69
  L 893.99 690.25"
/>
<path stroke="#977d80" vector-effect="non-scaling-stroke" d="
  M 893.99 690.25
  L 826.91 690.50
  Q 826.33 690.51 826.01 690.99
  L 771.75 772.27
  A 1.30 1.29 -39.0 0 0 771.62 773.45
  L 798.71 843.33"
/>
<path stroke="#f5f4f0" vector-effect="non-scaling-stroke" d="
  M 798.71 843.33
  Q 771.27 851.94 743.99 860.48
  C 741.75 861.18 738.71 864.56 736.00 864.49
  Q 731.62 864.37 727.29 865.01"
/>
<path stroke="#f79993" vector-effect="non-scaling-stroke" d="
  M 727.29 865.01
  L 676.81 865.44"
/>
<path stroke="#f5f4f0" vector-effect="non-scaling-stroke" d="
  M 676.81 865.44
  Q 675.24 863.52 673.26 862.90
  Q 639.74 852.41 606.24 841.82
  Q 604.79 841.36 605.15 839.77"
/>
<path stroke="#977d80" vector-effect="non-scaling-stroke" d="
  M 605.15 839.77
  L 630.95 773.23
  Q 631.12 772.79 630.86 772.40
  L 576.52 691.00
  A 1.11 1.09 73.0 0 0 575.60 690.50
  L 507.84 690.27"
/>
<path stroke="#969393" vector-effect="non-scaling-stroke" d="
  M 582.11 635.54
  Q 582.47 635.20 582.98 635.78
  Q 606.46 662.60 629.81 689.49
  Q 629.97 689.67 630.16 689.52
  L 630.17 689.52
  A 0.26 0.26 0.0 0 0 630.22 689.17
  L 589.79 630.06"
/>
<path stroke="#e2c09a" vector-effect="non-scaling-stroke" d="
  M 1227.53 984.10
  L 1181.80 953.26
  A 1.83 1.77 65.4 0 0 1181.06 952.97
  L 979.65 919.29
  Q 978.16 919.04 976.65 919.20
  L 947.23 922.37"
/>
<path stroke="#e3e2e2" vector-effect="non-scaling-stroke" d="
  M 947.23 922.37
  L 865.82 931.18"
/>
<path stroke="#e2c09a" vector-effect="non-scaling-stroke" d="
  M 801.05 938.40
  Q 800.55 938.26 800.46 937.75"
/>
<path stroke="#977d80" vector-effect="non-scaling-stroke" d="
  M 951.73 909.40
  L 879.47 919.20
  Q 878.96 919.27 878.56 918.95
  L 868.12 910.59"
/>
<path stroke="#927878" vector-effect="non-scaling-stroke" d="
  M 868.12 910.59
  L 805.80 860.23
  A 3.73 3.63 -82.0 0 1 804.68 858.70
  L 798.71 843.33"
/>
<path stroke="#e3e2e2" vector-effect="non-scaling-stroke" d="
  M 949.61 915.48
  Q 949.67 915.98 949.00 916.08
  Q 908.01 922.08 866.50 928.12"
/>
<path stroke="#a8a3a3" vector-effect="non-scaling-stroke" d="
  M 704.70 262.95
  C 704.16 263.17 703.62 263.09 703.10 263.40
  Q 640.78 300.04 578.60 336.62
  A 0.27 0.27 0.0 0 0 578.64 337.11
  L 657.89 367.31
  A 0.85 0.84 5.3 0 1 658.41 367.93
  L 681.47 484.27
  Q 681.68 485.37 680.88 484.59
  L 597.79 404.71
  Q 596.86 403.82 597.30 405.03
  C 614.62 452.86 632.05 501.03 647.99 549.48
  Q 648.52 551.10 649.20 553.97
  C 650.01 557.36 649.72 561.03 649.93 564.56
  Q 650.13 567.67 649.51 570.46
  Q 646.92 582.08 644.44 593.74
  Q 644.33 594.24 643.84 594.38
  C 637.93 596.04 630.49 601.57 625.32 605.06
  Q 607.31 617.24 589.79 630.06"
/>
<path stroke="#453d3e" vector-effect="non-scaling-stroke" d="
  M 589.79 630.06
  L 584.10 621.76
  Q 583.81 621.33 583.29 621.42
  L 368.53 656.76
  Q 368.06 656.84 367.73 657.17
  L 300.41 725.20
  Q 298.35 727.28 300.77 725.63
  Q 337.23 700.72 374.89 675.13
  Q 376.97 673.72 379.43 673.25
  Q 479.09 654.32 578.74 635.38
  Q 581.37 634.88 582.11 635.54"
/>
<path stroke="#a8a3a3" vector-effect="non-scaling-stroke" d="
  M 582.11 635.54
  L 507.84 690.27"
/>
<path stroke="#46272b" vector-effect="non-scaling-stroke" d="
  M 507.84 690.27
  L 391.71 690.01
  Q 391.03 690.01 390.89 690.68
  Q 381.06 737.21 371.13 783.96
  Q 369.04 793.78 367.36 803.61
  Q 359.50 849.46 351.66 895.48
  Q 351.58 895.95 352.05 896.01
  L 432.43 907.08"
/>
<path stroke="#928d8d" vector-effect="non-scaling-stroke" d="
  M 432.43 907.08
  L 229.54 937.96
  A 3.54 3.51 21.3 0 0 227.86 938.69
  L 171.77 983.45"
/>
<path stroke="#a49e9b" vector-effect="non-scaling-stroke" d="
  M 147.55 942.31
  L 174.12 930.49
  Q 174.61 930.28 175.01 930.65
  L 176.09 931.67
  A 0.26 0.26 0.0 0 0 176.53 931.53
  L 183.76 887.06"
/>
<path stroke="#a49e9b" vector-effect="non-scaling-stroke" d="
  M 184.76 880.05
  Q 185.26 879.07 185.26 878.06"
/>
<path stroke="#a8a3a3" vector-effect="non-scaling-stroke" d="
  M 185.26 878.06
  C 191.73 841.26 199.42 804.70 206.81 768.07
  Q 207.78 763.25 207.76 758.34
  Q 207.48 699.79 207.15 641.25
  Q 207.14 639.96 206.05 638.55"
/>
<path stroke="#f2958a" vector-effect="non-scaling-stroke" d="
  M 676.81 865.44
  L 652.77 865.64
  A 0.21 0.21 0.0 0 0 652.61 865.99
  L 706.72 927.76"
/>
<path stroke="#f5f4f0" vector-effect="non-scaling-stroke" d="
  M 706.72 927.76
  Q 706.32 928.75 706.01 928.72"
/>
<path stroke="#ba918c" vector-effect="non-scaling-stroke" d="
  M 706.01 928.72
  Q 705.75 928.33 705.80 928.00
  Q 705.82 927.85 705.74 927.86
  Q 705.61 927.88 705.58 927.99
  Q 697.14 960.99 688.64 993.96
  Q 688.54 994.36 688.15 994.45
  L 620.01 1010.45"
/>
<path stroke="#f5f4f0" vector-effect="non-scaling-stroke" d="
  M 620.01 1010.45
  Q 620.81 1009.43 619.80 1008.94
  Q 585.53 992.00 571.36 984.51"
/>
<path stroke="#dededa" vector-effect="non-scaling-stroke" d="
  M 571.36 984.51
  Q 590.69 986.20 608.50 988.28
  Q 609.09 988.34 610.78 988.98"
/>
<path stroke="#f4d1a8" vector-effect="non-scaling-stroke" d="
  M 610.78 988.98
  L 615.55 994.28
  Q 615.77 994.52 615.99 994.29
  L 620.47 989.46
  Q 620.67 989.24 620.47 989.02
  L 615.51 983.51
  Q 614.92 982.86 614.38 983.55
  L 610.81 988.17"
/>
<path stroke="#dededa" vector-effect="non-scaling-stroke" d="
  M 610.81 988.17
  L 561.30 980.80"
/>
<path stroke="#f5f4f0" vector-effect="non-scaling-stroke" d="
  M 561.30 980.80
  Q 559.76 978.45 555.78 977.38
  A 1.47 1.47 0.0 0 1 554.69 976.06
  L 553.28 956.29"
/>
<path stroke="#dededa" vector-effect="non-scaling-stroke" d="
  M 553.28 956.29
  Q 568.82 958.20 583.74 959.81
  Q 584.53 959.89 584.67 960.30"
/>
<path stroke="#f4d1a8" vector-effect="non-scaling-stroke" d="
  M 584.67 960.30
  L 589.77 966.01
  Q 589.98 966.25 590.20 966.01
  L 594.66 961.13
  Q 594.80 960.98 594.66 960.82
  L 589.45 955.12
  Q 589.04 954.67 588.66 955.15
  L 585.27 959.34"
/>
<path stroke="#dededa" vector-effect="non-scaling-stroke" d="
  M 585.27 959.34
  L 552.83 954.73"
/>
<path stroke="#f5f4f0" vector-effect="non-scaling-stroke" d="
  M 552.83 954.73
  L 550.66 926.97"
/>
<path stroke="#dededa" vector-effect="non-scaling-stroke" d="
  M 550.66 926.97
  Q 563.70 928.01 576.49 929.61
  C 588.71 931.13 600.33 932.24 609.58 933.37
  Q 609.94 933.42 610.81 933.95"
/>
<path stroke="#f4d1a8" vector-effect="non-scaling-stroke" d="
  M 610.81 933.95
  L 615.62 939.17
  Q 615.82 939.39 616.03 939.18
  L 620.49 934.44
  Q 620.71 934.20 620.49 933.96
  L 615.29 928.24
  Q 614.93 927.84 614.60 928.27
  L 610.85 933.08"
/>
<path stroke="#dededa" vector-effect="non-scaling-stroke" d="
  M 610.85 933.08
  L 550.34 924.04"
/>
<path stroke="#f5f4f0" vector-effect="non-scaling-stroke" d="
  M 550.34 924.04
  L 548.07 899.53"
/>
<path stroke="#f79993" vector-effect="non-scaling-stroke" d="
  M 710.28 928.28
  Q 709.70 929.22 709.08 929.67
  Q 708.61 930.02 708.23 929.56
  L 706.72 927.76"
/>
<path stroke="#927878" vector-effect="non-scaling-stroke" d="
  M 605.15 839.77
  Q 601.75 848.79 598.15 857.71
  Q 597.38 859.62 595.77 860.92
  Q 571.33 880.73 548.07 899.53"
/>
<path stroke="#977d80" vector-effect="non-scaling-stroke" d="
  M 548.07 899.53
  L 523.42 919.43"
/>
<path stroke="#80676a" vector-effect="non-scaling-stroke" d="
  M 523.42 919.43
  L 432.43 907.08"
/>
<path stroke="#f5f4f0" vector-effect="non-scaling-stroke" d="
  M 868.12 910.59
  Q 866.21 919.20 866.50 928.12"
/>
<path stroke="#dededa" vector-effect="non-scaling-stroke" d="
  M 866.50 928.12
  L 800.46 937.75"
/>
<path stroke="#f4d1a8" vector-effect="non-scaling-stroke" d="
  M 800.46 937.75
  L 796.81 932.96
  A 0.41 0.41 0.0 0 0 796.18 932.93
  L 790.91 938.67
  Q 790.76 938.83 790.91 938.98
  L 795.46 943.91
  Q 795.64 944.10 795.82 943.91
  L 801.05 938.40"
/>
<path stroke="#dededa" vector-effect="non-scaling-stroke" d="
  M 801.05 938.40
  L 865.82 931.18"
/>
<path stroke="#f5f4f0" vector-effect="non-scaling-stroke" d="
  M 865.82 931.18
  L 863.61 959.17"
/>
<path stroke="#dededa" vector-effect="non-scaling-stroke" d="
  M 863.61 959.17
  L 826.71 964.50"
/>
<path stroke="#f4d1a8" vector-effect="non-scaling-stroke" d="
  M 826.71 964.50
  L 822.60 959.64
  A 0.26 0.26 0.0 0 0 822.21 959.63
  L 816.86 965.44
  Q 816.67 965.64 816.86 965.85
  L 821.25 970.68
  A 0.32 0.31 -44.4 0 0 821.72 970.68
  L 826.79 965.10"
/>
<path stroke="#dededa" vector-effect="non-scaling-stroke" d="
  M 826.79 965.10
  L 863.28 961.11"
/>
<path stroke="#f5f4f0" vector-effect="non-scaling-stroke" d="
  M 863.28 961.11
  L 862.37 974.15
  A 0.65 0.64 -10.5 0 1 862.00 974.68
  Q 849.85 980.10 837.45 987.22"
/>
<path stroke="#dededa" vector-effect="non-scaling-stroke" d="
  M 837.45 987.22
  L 800.30 992.70"
/>
<path stroke="#f4d1a8" vector-effect="non-scaling-stroke" d="
  M 800.30 992.70
  L 797.06 988.69
  A 0.66 0.66 0.0 0 0 796.07 988.66
  L 790.89 994.21
  A 0.25 0.25 0.0 0 0 790.89 994.56
  L 795.45 999.43
  Q 795.64 999.64 795.83 999.43
  L 800.79 994.04"
/>
<path stroke="#dededa" vector-effect="non-scaling-stroke" d="
  M 800.79 994.04
  Q 801.00 993.20 801.50 993.14
  Q 811.91 991.90 829.88 990.32"
/>
<path stroke="#f5f4f0" vector-effect="non-scaling-stroke" d="
  M 829.88 990.32
  L 793.60 1008.82"
/>
<path stroke="#ba918c" vector-effect="non-scaling-stroke" d="
  M 793.60 1008.82
  L 726.21 993.94
  Q 725.81 993.85 725.72 993.45
  L 711.57 928.25
  Q 711.51 928.00 711.32 928.17
  Q 711.21 928.27 711.21 928.54"
/>
<path stroke="#f5f4f0" vector-effect="non-scaling-stroke" d="
  M 711.21 928.54
  L 710.28 928.28"
/>
<path stroke="#f2958a" vector-effect="non-scaling-stroke" d="
  M 710.28 928.28
  L 762.90 865.26
  Q 763.39 864.68 762.63 864.69
  L 727.29 865.01"
/>
<path stroke="#e3e2e2" vector-effect="non-scaling-stroke" d="
  M 938.04 948.21
  L 863.61 959.17"
/>
<path stroke="#f4d1a8" vector-effect="non-scaling-stroke" d="
  M 1216.05 985.77
  Q 1215.95 985.67 1215.91 985.56
  Q 1215.84 985.37 1215.64 985.39
  L 1187.88 988.30"
/>
<path stroke="#e2c09a" vector-effect="non-scaling-stroke" d="
  M 1187.88 988.30
  L 1005.08 938.85
  A 5.26 5.20 47.9 0 0 1002.96 938.73
  L 938.04 948.21"
/>
<path stroke="#f9d6b0" vector-effect="non-scaling-stroke" d="
  M 938.04 948.21
  L 947.23 922.37"
/>
<path stroke="#a8a3a3" vector-effect="non-scaling-stroke" d="
  M 701.02 262.38
  L 602.97 279.86"
/>
<path stroke="#f5f4f0" vector-effect="non-scaling-stroke" d="
  M 185.26 878.06
  Q 184.17 878.40 183.69 877.45
  Q 183.11 876.31 183.00 876.16
  Q 172.87 863.13 163.28 850.88"
/>
<path stroke="#a06259" vector-effect="non-scaling-stroke" d="
  M 438.63 365.17
  C 371.81 427.53 304.56 489.46 237.48 551.54
  Q 237.25 551.75 236.70 551.55"
/>
<path stroke="#e2c09a" vector-effect="non-scaling-stroke" d="
  M 610.85 933.08
  L 610.81 933.95"
/>
<path stroke="#e3e2e2" vector-effect="non-scaling-stroke" d="
  M 550.66 926.97
  Q 502.63 921.72 454.25 916.61
  Q 453.82 916.56 453.47 916.99"
/>
<path stroke="#928d8d" vector-effect="non-scaling-stroke" d="
  M 453.47 916.99
  Q 453.30 916.75 453.06 916.56
  Q 452.86 916.39 452.52 916.35
  C 445.38 915.54 437.03 913.79 429.92 914.98
  Q 331.46 931.46 232.98 947.91
  Q 230.59 948.31 228.58 949.66
  Q 203.11 966.69 177.69 983.92"
/>
<path stroke="#453d3e" vector-effect="non-scaling-stroke" d="
  M 512.49 308.42
  L 512.01 309.21
  Q 511.75 309.64 511.35 309.94
  Q 483.83 329.91 456.33 349.91
  C 450.10 354.44 444.58 360.04 438.63 365.17"
/>
<path stroke="#8e5249" vector-effect="non-scaling-stroke" d="
  M 438.63 365.17
  L 234.27 240.57
  Q 233.18 239.91 232.25 239.04
  L 187.27 197.52
  A 0.22 0.21 -66.0 0 0 186.91 197.66
  L 173.27 387.03
  A 3.93 3.86 37.2 0 0 173.52 388.74
  L 236.70 551.55"
/>
<path stroke="#453d3e" vector-effect="non-scaling-stroke" d="
  M 236.70 551.55
  Q 237.09 551.89 236.19 552.72
  Q 221.78 566.03 207.17 579.59
  A 1.25 1.23 -22.1 0 0 206.78 580.49
  Q 207.00 608.87 207.09 637.50
  Q 207.09 638.82 206.05 638.55"
/>
<path stroke="#969393" vector-effect="non-scaling-stroke" d="
  M 206.05 638.55
  L 194.92 621.29"
/>
<path stroke="#be9595" vector-effect="non-scaling-stroke" d="
  M 706.01 928.72
  L 705.06 1012.09"
/>
<path stroke="#ba918c" vector-effect="non-scaling-stroke" d="
  M 705.06 1012.09
  Q 705.17 1013.27 704.71 1013.37
  Q 666.62 1021.26 627.51 1029.51"
/>
<path stroke="#be9595" vector-effect="non-scaling-stroke" d="
  M 627.51 1029.51
  L 614.84 1032.11
  Q 614.32 1032.21 613.88 1031.93
  L 533.69 981.44"
/>
<path stroke="#a87f7f" vector-effect="non-scaling-stroke" d="
  M 533.69 981.44
  Q 533.63 981.32 534.06 981.06"
/>
<path stroke="#be9595" vector-effect="non-scaling-stroke" d="
  M 534.06 981.06
  Q 574.35 996.00 614.72 1010.77
  C 616.73 1011.51 618.08 1011.01 620.01 1010.45"
/>
<path stroke="#e2c09a" vector-effect="non-scaling-stroke" d="
  M 610.81 988.17
  Q 610.99 988.41 610.78 988.98"
/>
<path stroke="#e3e2e2" vector-effect="non-scaling-stroke" d="
  M 571.36 984.51
  L 533.62 980.28
  A 0.20 0.20 0.0 0 0 533.40 980.54
  Q 533.58 981.10 534.06 981.06"
/>
<path stroke="#e3e2e2" vector-effect="non-scaling-stroke" d="
  M 533.69 981.44
  C 532.47 980.77 531.79 979.97 530.31 979.81
  Q 502.42 976.81 474.53 973.80
  Q 474.21 973.76 474.01 974.01
  Q 473.93 974.12 473.85 974.24"
/>
<path stroke="#928d8d" vector-effect="non-scaling-stroke" d="
  M 473.85 974.24
  Q 474.00 973.75 473.25 973.67
  Q 454.01 971.57 434.99 969.51
  Q 433.83 969.39 432.67 969.62
  Q 366.83 982.68 300.65 995.80
  Q 300.39 995.85 300.13 996.01
  Q 299.90 996.15 299.66 996.28
  Q 299.43 996.40 299.67 996.48
  Q 299.81 996.52 299.96 996.58"
/>
<path stroke="#e3e2e2" vector-effect="non-scaling-stroke" d="
  M 299.96 996.58
  C 298.58 996.69 297.37 996.44 296.03 996.71
  Q 287.47 998.42 279.00 1000.10"
/>
<path stroke="#dededa" vector-effect="non-scaling-stroke" d="
  M 279.00 1000.10
  Q 268.24 1002.23 257.52 1004.37
  Q 254.96 1004.88 252.80 1006.36
  Q 237.97 1016.51 223.04 1026.80"
/>
<path stroke="#dededa" vector-effect="non-scaling-stroke" d="
  M 218.80 1022.02
  Q 218.97 1021.94 219.12 1021.90
  Q 219.40 1021.82 219.63 1021.64
  L 250.60 996.30
  A 2.24 2.19 19.1 0 1 251.53 995.86
  L 265.12 992.95"
/>
<path stroke="#e2c09a" vector-effect="non-scaling-stroke" d="
  M 585.27 959.34
  Q 584.71 959.95 584.67 960.30"
/>
<path stroke="#e3e2e2" vector-effect="non-scaling-stroke" d="
  M 553.28 956.29
  L 465.40 946.88
  Q 465.02 946.84 464.70 947.05
  Q 464.50 947.19 464.24 947.22"
/>
<path stroke="#928d8d" vector-effect="non-scaling-stroke" d="
  M 464.24 947.22
  Q 464.04 946.98 463.84 946.82
  Q 463.64 946.65 463.31 946.62
  Q 436.04 943.70 409.17 940.78
  A 4.09 3.98 39.6 0 0 407.68 940.90
  L 226.78 988.80"
/>
<path stroke="#dededa" vector-effect="non-scaling-stroke" d="
  M 226.78 988.80
  Q 223.49 989.60 220.02 990.54
  Q 217.32 991.28 215.03 992.97
  Q 208.88 997.52 202.78 1002.14
  C 202.35 1002.47 202.35 1002.69 202.01 1003.10"
/>
<path stroke="#dededa" vector-effect="non-scaling-stroke" d="
  M 197.74 998.26
  Q 198.61 998.56 199.02 998.21
  Q 204.59 993.34 210.19 988.49
  Q 210.76 988.00 210.36 987.08"
/>
<path stroke="#e3e2e2" vector-effect="non-scaling-stroke" d="
  M 561.30 980.80
  Q 517.09 974.37 473.50 967.99
  Q 472.19 967.80 471.30 967.02"
/>
<path stroke="#be9595" vector-effect="non-scaling-stroke" d="
  M 711.21 928.54
  L 716.06 1011.20"
/>
<path stroke="#f5f4f0" vector-effect="non-scaling-stroke" d="
  M 716.06 1011.20
  Q 711.43 1012.63 705.06 1012.09"
/>
<path stroke="#e3e2e2" vector-effect="non-scaling-stroke" d="
  M 550.34 924.04
  Q 536.91 922.85 523.42 919.43"
/>
<path stroke="#e3e2e2" vector-effect="non-scaling-stroke" d="
  M 552.83 954.73
  L 462.09 941.25"
/>
<path stroke="#dededa" vector-effect="non-scaling-stroke" d="
  M 1127.25 994.44
  Q 1143.04 997.67 1158.50 1000.42
  Q 1160.53 1000.78 1162.11 1002.07
  Q 1173.20 1011.05 1184.20 1020.10
  Q 1184.58 1020.41 1185.30 1020.32"
/>
<path stroke="#dededa" vector-effect="non-scaling-stroke" d="
  M 1180.28 1026.01
  Q 1169.42 1018.33 1158.60 1011.03
  Q 1156.43 1009.57 1153.86 1009.06
  Q 1137.67 1005.85 1121.57 1002.65"
/>
<path stroke="#e3e2e2" vector-effect="non-scaling-stroke" d="
  M 1121.57 1002.65
  L 1099.70 998.31"
/>
<path stroke="#e2c09a" vector-effect="non-scaling-stroke" d="
  M 1099.70 998.31
  L 979.17 974.39
  Q 977.68 974.10 976.18 974.26
  Q 951.66 976.91 927.14 979.55
  Q 927.04 979.56 926.97 979.63
  Q 926.88 979.74 926.77 979.80"
/>
<path stroke="#e3e2e2" vector-effect="non-scaling-stroke" d="
  M 926.77 979.80
  L 878.36 984.95"
/>
<path stroke="#e3e2e2" vector-effect="non-scaling-stroke" d="
  M 867.98 986.48
  Q 848.11 987.53 829.88 990.32"
/>
<path stroke="#e2c09a" vector-effect="non-scaling-stroke" d="
  M 800.79 994.04
  Q 800.79 993.66 800.30 992.70"
/>
<path stroke="#e3e2e2" vector-effect="non-scaling-stroke" d="
  M 928.81 974.05
  L 837.45 987.22"
/>
<path stroke="#dededa" vector-effect="non-scaling-stroke" d="
  M 1187.88 988.30
  Q 1192.53 989.86 1197.08 990.99
  C 1200.48 991.84 1202.68 994.42 1205.10 996.71
  Q 1205.38 996.98 1206.28 996.77"
/>
<path stroke="#dededa" vector-effect="non-scaling-stroke" d="
  M 1201.32 1002.30
  Q 1201.34 1001.40 1200.92 1001.05
  C 1198.39 998.99 1195.41 996.61 1191.80 995.62
  Q 1180.40 992.50 1169.26 990.04"
/>
<path stroke="#e2c09a" vector-effect="non-scaling-stroke" d="
  M 1169.26 990.04
  L 1004.58 946.13
  Q 1003.56 945.86 1002.51 945.98
  Q 969.75 949.56 936.50 953.09
  Q 936.19 953.13 936.11 953.52"
/>
<path stroke="#e3e2e2" vector-effect="non-scaling-stroke" d="
  M 936.11 953.52
  Q 935.99 953.16 935.25 953.24
  C 911.26 955.86 887.25 958.31 863.28 961.11"
/>
<path stroke="#e2c09a" vector-effect="non-scaling-stroke" d="
  M 826.79 965.10
  Q 826.51 965.28 826.71 964.50"
/>
<path stroke="#be9595" vector-effect="non-scaling-stroke" d="
  M 793.60 1008.82
  Q 797.53 1009.90 800.35 1010.43
  Q 802.40 1010.83 804.55 1010.05
  Q 835.84 998.71 867.98 986.48"
/>
<path stroke="#a87f7f" vector-effect="non-scaling-stroke" d="
  M 867.98 986.48
  L 878.36 984.95"
/>
<path stroke="#be9595" vector-effect="non-scaling-stroke" d="
  M 878.36 984.95
  L 804.62 1031.45
  Q 804.17 1031.73 803.66 1031.63
  L 793.46 1029.55"
/>
<path stroke="#ba918c" vector-effect="non-scaling-stroke" d="
  M 793.46 1029.55
  L 716.78 1013.44
  Q 716.27 1013.33 716.22 1012.81
  L 716.06 1011.20"
/>
<path stroke="#453d3e" vector-effect="non-scaling-stroke" d="
  M 434.43 270.23
  L 425.37 339.27
  Q 425.26 340.04 424.60 339.64
  L 244.25 230.51
  A 8.91 8.71 -5.2 0 1 242.32 228.94
  L 179.12 161.57
  A 0.36 0.35 -65.5 0 0 178.51 161.80
  L 167.13 391.10
  A 4.03 3.96 -55.2 0 0 167.42 392.79
  L 217.68 514.99
  A 2.22 2.21 42.8 0 1 217.74 516.49
  L 204.02 560.51
  A 4.33 4.33 0.0 0 1 203.22 562.01
  L 177.59 593.32
  A 0.91 0.91 0.0 0 0 177.53 594.39
  L 194.92 621.29"
/>
<path stroke="#a8a3a3" vector-effect="non-scaling-stroke" d="
  M 194.92 621.29
  L 193.22 628.78"
/>
<path stroke="#a8a3a3" vector-effect="non-scaling-stroke" d="
  M 453.47 916.99
  L 462.09 941.25"
/>
<path stroke="#928d8d" vector-effect="non-scaling-stroke" d="
  M 462.09 941.25
  L 408.59 933.49
  Q 407.95 933.40 407.32 933.57
  L 210.36 987.08"
/>
<path stroke="#a49e9b" vector-effect="non-scaling-stroke" d="
  M 210.36 987.08
  L 185.88 984.88"
/>
<path stroke="#f5f4f0" vector-effect="non-scaling-stroke" d="
  M 627.51 1029.51
  L 703.69 1103.69
  A 0.89 0.89 0.0 0 0 704.88 1103.74
  L 793.46 1029.55"
/>
<path stroke="#f9d6b0" vector-effect="non-scaling-stroke" d="
  M 926.77 979.80
  L 915.02 1012.80
  A 1.21 1.19 38.5 0 0 915.15 1013.88
  L 991.18 1129.38"
/>
<path stroke="#f5f4f0" vector-effect="non-scaling-stroke" d="
  M 991.18 1129.38
  L 936.57 1172.19
  A 2.47 2.45 25.1 0 1 935.06 1172.73
  C 901.35 1173.28 867.53 1173.17 833.75 1173.93
  C 831.27 1173.98 829.97 1175.49 827.25 1175.54
  Q 812.50 1175.83 797.75 1175.62
  Q 751.21 1174.96 703.60 1174.65"
/>
<path stroke="#f9d6b0" vector-effect="non-scaling-stroke" d="
  M 703.60 1174.65
  Q 729.40 1156.98 754.17 1140.26
  Q 754.65 1139.93 753.84 1140.31
  Q 728.23 1152.38 702.44 1164.59
  A 0.46 0.44 -39.2 0 1 701.99 1164.55
  L 654.61 1132.70
  Q 654.59 1132.69 654.58 1132.70
  L 654.39 1132.95
  Q 654.24 1133.15 654.42 1133.31
  L 700.45 1174.58"
/>
<path stroke="#f5f4f0" vector-effect="non-scaling-stroke" d="
  M 700.45 1174.58
  Q 688.30 1174.85 677.00 1174.96
  Q 626.25 1175.42 575.50 1175.63
  C 573.97 1175.64 573.40 1175.60 571.93 1174.82
  C 568.80 1173.16 563.03 1173.66 559.50 1173.64
  Q 513.61 1173.30 467.77 1172.79
  A 3.08 3.08 0.0 0 1 465.88 1172.12
  L 411.02 1129.30"
/>
<path stroke="#f5f4f0" vector-effect="non-scaling-stroke" d="
  M 409.41 1127.20
  Q 406.92 1126.79 404.46 1124.59
  Q 401.06 1121.55 400.98 1121.49
  Q 365.83 1094.09 331.22 1067.11
  Q 329.76 1065.97 328.64 1064.51
  L 279.00 1000.10"
/>
<path stroke="#a8a3a3" vector-effect="non-scaling-stroke" d="
  M 464.24 947.22
  L 471.30 967.02"
/>
<path stroke="#928d8d" vector-effect="non-scaling-stroke" d="
  M 471.30 967.02
  Q 471.41 967.71 469.99 967.50
  Q 452.13 964.87 434.68 962.29
  A 7.92 7.89 43.8 0 0 432.09 962.34
  Q 350.29 977.58 268.29 992.86
  Q 267.56 993.00 266.72 992.94
  Q 265.60 992.86 265.12 992.95"
/>
<path stroke="#a49e9b" vector-effect="non-scaling-stroke" d="
  M 265.12 992.95
  L 226.78 988.80"
/>
<path stroke="#f4d1a8" vector-effect="non-scaling-stroke" d="
  M 700.45 1174.58
  L 701.43 1175.36
  Q 701.83 1175.68 702.26 1175.42
  L 703.60 1174.65"
/>
<path stroke="#a8a3a3" vector-effect="non-scaling-stroke" d="
  M 473.85 974.24
  L 487.44 1012.46
  Q 487.61 1012.95 487.32 1013.39
  L 411.02 1129.30"
/>
<path stroke="#a49e9b" vector-effect="non-scaling-stroke" d="
  M 411.02 1129.30
  Q 410.27 1127.88 409.41 1127.20"
/>
<path stroke="#a8a3a3" vector-effect="non-scaling-stroke" d="
  M 409.41 1127.20
  Q 355.61 1061.88 302.03 996.96
  Q 301.38 996.18 299.96 996.58"
/>
<path stroke="#f9d6b0" vector-effect="non-scaling-stroke" d="
  M 1099.70 998.31
  L 994.66 1125.67"
/>
<path stroke="#f4d1a8" vector-effect="non-scaling-stroke" d="
  M 994.66 1125.67
  L 991.18 1129.38"
/>
<path stroke="#f4d1a8" vector-effect="non-scaling-stroke" d="
  M 1169.26 990.04
  L 1127.25 994.44"
/>
<path stroke="#e2c09a" vector-effect="non-scaling-stroke" d="
  M 1127.25 994.44
  L 979.56 967.11
  A 9.39 9.36 -44.0 0 0 976.43 967.06
  L 928.81 974.05"
/>
<path stroke="#f9d6b0" vector-effect="non-scaling-stroke" d="
  M 928.81 974.05
  L 936.11 953.52"
/>
<path stroke="#f5f4f0" vector-effect="non-scaling-stroke" d="
  M 1121.57 1002.65
  Q 1098.31 1032.76 1075.21 1062.75
  Q 1072.73 1065.97 1069.52 1068.47
  Q 1034.67 1095.63 999.88 1122.88
  Q 998.12 1124.26 996.48 1125.76
  Q 996.04 1126.16 995.63 1126.18
  Q 994.95 1126.21 994.66 1125.67"
/>
<path stroke="#f9d6b0" vector-effect="non-scaling-stroke" d="
  M 770.81 823.63
  A 0.05 0.05 0.0 0 0 770.78 823.57
  L 705.97 796.05
  A 0.05 0.05 0.0 0 0 705.93 796.05
  L 645.81 819.58
  A 0.05 0.05 0.0 0 0 645.78 819.64
  L 645.99 820.31
  A 0.05 0.05 0.0 0 0 646.05 820.34
  L 705.08 807.06
  A 0.05 0.05 0.0 0 1 705.10 807.06
  L 770.72 823.75
  A 0.05 0.05 0.0 0 0 770.78 823.71
  L 770.81 823.63"
/>
<path stroke="#f0965b" vector-effect="non-scaling-stroke" d="
  M 1139.37 649.62
  A 0.56 0.56 0.0 0 0 1138.81 649.87
  L 1120.33 677.96
  A 0.56 0.56 0.0 0 0 1120.33 678.58
  L 1130.52 693.53
  A 0.56 0.56 0.0 0 0 1130.99 693.77
  L 1145.69 693.78
  A 0.56 0.56 0.0 0 0 1146.13 693.57
  L 1162.36 673.57
  A 0.56 0.56 0.0 0 0 1162.48 673.18
  L 1161.15 653.89
  A 0.56 0.56 0.0 0 0 1160.69 653.37
  L 1139.37 649.62"
/>
<path stroke="#977d80" vector-effect="non-scaling-stroke" d="
  M 436.88 721.79
  L 402.79 721.59
  A 0.62 0.61 -82.6 0 0 402.20 722.05
  Q 393.60 757.42 384.97 792.81
  Q 382.60 802.54 380.68 812.33
  Q 373.93 846.66 367.20 880.97
  A 0.36 0.35 -81.2 0 0 367.51 881.40
  L 520.22 899.44
  Q 520.64 899.49 520.97 899.23
  L 576.44 856.25
  Q 576.91 855.89 577.01 855.30
  L 592.43 770.22
  A 1.51 1.45 37.4 0 0 592.28 769.24
  L 567.83 722.44
  Q 567.59 722.00 567.09 722.00
  L 536.21 721.89"
/>
<path stroke="#72393d" vector-effect="non-scaling-stroke" d="
  M 536.21 721.89
  L 533.47 718.30
  Q 533.10 717.83 532.51 717.81
  L 442.22 715.95
  A 1.18 1.17 19.7 0 0 441.28 716.39
  L 436.88 721.79"
/>
<path stroke="#d5b5b5" vector-effect="non-scaling-stroke" d="
  M 536.21 721.89
  L 571.58 769.22
  A 1.31 1.26 28.0 0 1 571.84 770.02
  L 570.74 836.48
  Q 570.73 836.97 570.42 837.35
  L 558.01 852.13"
/>
<path stroke="#d0b0ac" vector-effect="non-scaling-stroke" d="
  M 558.01 852.13
  L 558.23 839.49
  Q 558.24 838.97 557.96 838.54
  L 555.46 834.82"
/>
<path stroke="#7f3f44" vector-effect="non-scaling-stroke" d="
  M 555.46 834.82
  L 557.80 832.16
  A 1.58 1.55 -24.6 0 0 558.18 831.17
  L 559.13 774.43
  Q 559.14 773.84 558.79 773.37
  L 526.33 729.72
  Q 526.03 729.32 525.53 729.31
  L 448.23 727.69
  Q 447.79 727.69 447.52 728.03
  L 412.60 772.70
  Q 412.26 773.13 412.26 773.69
  L 412.32 829.48
  A 1.29 1.20 -64.4 0 0 412.55 830.21
  L 444.08 874.68
  A 1.24 1.22 74.0 0 0 445.00 875.20
  L 517.52 880.19
  A 0.69 0.67 -67.2 0 0 518.10 879.94
  L 532.89 862.14"
/>
<path stroke="#d0b0ac" vector-effect="non-scaling-stroke" d="
  M 532.89 862.14
  L 548.47 863.81"
/>
<path stroke="#d5b5b5" vector-effect="non-scaling-stroke" d="
  M 548.47 863.81
  L 523.82 893.15
  A 0.67 0.66 21.9 0 1 523.25 893.39
  L 438.48 887.59
  Q 437.63 887.53 437.14 886.84
  L 400.42 835.32
  Q 400.08 834.84 400.08 834.26
  L 400.00 769.74
  A 2.74 2.74 0.0 0 1 400.60 768.03
  L 436.88 721.79"
/>
<path stroke="#9f7e7f" vector-effect="non-scaling-stroke" d="
  M 555.46 834.82
  L 551.27 828.79
  Q 550.96 828.36 550.44 828.34
  L 542.94 828.15"
/>
<path stroke="#682024" vector-effect="non-scaling-stroke" d="
  M 542.94 828.15
  L 547.40 783.86
  Q 547.45 783.35 547.07 782.99
  Q 545.84 781.84 544.27 781.13"
/>
<path stroke="#27070b" vector-effect="non-scaling-stroke" d="
  M 544.27 781.13
  Q 544.79 781.10 544.56 780.24
  Q 544.47 779.88 544.17 779.49
  Q 531.25 762.11 518.38 744.89
  A 0.93 0.93 0.0 0 0 517.66 744.52
  L 477.34 743.67"
/>
<path stroke="#9f7e7f" vector-effect="non-scaling-stroke" d="
  M 477.34 743.67
  L 472.82 737.70
  A 1.03 1.00 71.7 0 0 472.03 737.29
  L 441.75 736.68
  A 0.50 0.49 -70.7 0 0 441.36 736.87
  L 427.68 754.24
  Q 427.31 754.71 427.31 755.30
  L 427.38 776.67
  Q 427.38 777.14 427.67 777.52
  L 428.54 778.63"
/>
<path stroke="#27070b" vector-effect="non-scaling-stroke" d="
  M 428.54 778.63
  Q 427.29 779.00 427.30 779.75
  Q 427.45 799.25 427.35 818.75
  Q 427.34 821.51 427.50 824.34
  A 1.78 1.71 26.7 0 0 427.82 825.24
  L 452.52 860.00
  A 1.73 1.73 0.0 0 0 453.82 860.72
  L 499.98 863.61"
/>
<path stroke="#682024" vector-effect="non-scaling-stroke" d="
  M 499.98 863.61
  Q 499.81 863.75 499.88 863.99
  Q 499.97 864.30 500.28 864.34
  L 516.69 866.61
  Q 517.22 866.68 517.62 866.33
  L 529.16 856.47"
/>
<path stroke="#9f7e7f" vector-effect="non-scaling-stroke" d="
  M 529.16 856.47
  L 532.89 862.14"
/>
<path stroke="#f5f4f0" vector-effect="non-scaling-stroke" d="
  M 548.47 863.81
  Q 553.71 858.79 558.01 852.13"
/>
<path stroke="#ba918c" vector-effect="non-scaling-stroke" d="
  M 529.16 856.47
  C 527.76 854.40 526.31 852.90 526.22 850.23
  Q 526.14 847.91 526.18 845.39"
/>
<path stroke="#421919" vector-effect="non-scaling-stroke" d="
  M 544.27 781.13
  L 523.44 767.23
  Q 522.71 766.74 523.11 767.52
  Q 529.82 780.53 536.92 793.32
  Q 537.74 794.80 537.60 796.51
  Q 536.27 812.41 534.88 827.60"
/>
<path stroke="#787874" vector-effect="non-scaling-stroke" d="
  M 534.88 827.60
  Q 530.14 832.51 526.48 838.35
  Q 526.22 838.76 526.22 839.24
  L 526.18 845.39"
/>
<path stroke="#421919" vector-effect="non-scaling-stroke" d="
  M 526.18 845.39
  L 499.98 863.61"
/>
<path stroke="#ba918c" vector-effect="non-scaling-stroke" d="
  M 542.94 828.15
  L 534.88 827.60"
/>
<path stroke="#787874" vector-effect="non-scaling-stroke" d="
  M 477.34 743.67
  L 485.47 754.52
  Q 485.72 754.85 485.71 755.26
  L 485.33 777.22
  A 1.52 1.46 66.7 0 1 484.98 778.16
  L 469.69 796.45
  Q 469.32 796.89 468.75 796.85
  L 440.74 794.94
  A 1.27 1.23 -15.2 0 1 439.80 794.42
  L 428.54 778.63"
/>
<path stroke="#977d80" vector-effect="non-scaling-stroke" d="
  M 865.71 721.91
  L 835.26 721.98
  Q 834.94 721.98 834.79 722.26
  L 810.25 769.22
  Q 810.00 769.69 810.09 770.21
  L 825.56 855.54
  A 0.98 0.92 15.7 0 0 825.91 856.12
  L 881.68 899.33
  A 0.66 0.65 60.1 0 0 882.15 899.46
  L 1035.18 881.39
  A 0.22 0.22 0.0 0 0 1035.37 881.13
  Q 1028.65 847.00 1021.95 812.81
  Q 1020.02 802.98 1017.66 793.29
  Q 1009.00 757.72 1000.30 721.97
  A 0.51 0.50 82.1 0 0 999.80 721.59
  L 965.63 721.78"
/>
<path stroke="#72393d" vector-effect="non-scaling-stroke" d="
  M 965.63 721.78
  L 961.21 716.38
  Q 960.86 715.94 960.30 715.95
  L 869.98 717.82
  Q 869.50 717.83 869.18 718.18
  C 868.25 719.23 867.09 721.67 865.71 721.91"
/>
<path stroke="#d5b5b5" vector-effect="non-scaling-stroke" d="
  M 965.63 721.78
  L 1002.21 768.40
  Q 1002.51 768.77 1002.51 769.25
  L 1002.47 834.33
  A 1.58 1.57 -27.5 0 1 1002.18 835.24
  L 965.15 887.18
  Q 964.91 887.52 964.49 887.55
  L 879.53 893.38
  A 1.13 1.12 67.8 0 1 878.59 892.98
  L 832.07 837.32
  Q 831.80 837.00 831.79 836.59
  L 830.67 770.27
  A 1.90 1.88 63.6 0 1 831.06 769.09
  L 865.99 722.38
  A 0.27 0.27 0.0 0 0 866.02 722.10
  Q 865.92 721.87 865.71 721.91"
/>
<path stroke="#d0b0ac" vector-effect="non-scaling-stroke" d="
  M 873.46 736.69
  L 871.98 736.97
  Q 871.50 737.06 871.19 737.45
  Q 864.70 745.65 858.24 753.87
  C 857.65 754.61 857.67 755.34 857.56 756.22"
/>
<path stroke="#7f3f44" vector-effect="non-scaling-stroke" d="
  M 857.56 756.22
  Q 857.77 755.31 856.88 755.51
  A 0.73 0.64 -73.8 0 0 856.49 755.76
  L 843.20 772.76
  Q 842.95 773.09 842.95 773.51
  L 842.98 829.49
  A 1.32 1.28 -63.9 0 0 843.23 830.26
  L 874.66 874.59
  Q 875.06 875.16 875.75 875.20
  L 947.99 880.18
  Q 948.48 880.21 948.79 879.84
  L 963.07 862.61"
/>
<path stroke="#d0b0ac" vector-effect="non-scaling-stroke" d="
  M 963.07 862.61
  L 978.32 863.69
  A 1.10 1.10 0.0 0 0 979.26 863.27
  L 987.34 852.80
  Q 987.65 852.40 987.66 851.90
  Q 987.85 845.83 987.92 839.76
  C 987.94 838.16 986.30 836.60 985.50 835.31"
/>
<path stroke="#7f3f44" vector-effect="non-scaling-stroke" d="
  M 985.50 835.31
  C 987.39 833.81 988.79 832.46 988.84 829.82
  Q 989.33 801.89 989.76 774.20
  A 1.23 1.18 -63.7 0 0 989.54 773.50
  L 956.77 729.46
  A 0.35 0.33 -16.8 0 0 956.49 729.32
  L 879.03 727.70
  Q 878.49 727.69 878.15 728.11
  L 872.39 735.41
  A 0.74 0.74 0.0 0 0 872.85 736.60
  L 873.46 736.69"
/>
<path stroke="#9f7e7f" vector-effect="non-scaling-stroke" d="
  M 985.50 835.31
  L 981.00 828.81
  A 1.03 1.02 72.9 0 0 980.18 828.37
  L 972.74 828.21"
/>
<path stroke="#682024" vector-effect="non-scaling-stroke" d="
  M 972.74 828.21
  L 973.28 826.90"
/>
<path stroke="#27070b" vector-effect="non-scaling-stroke" d="
  M 973.28 826.90
  Q 975.09 825.71 975.22 823.00
  Q 975.46 817.71 974.47 814.16"
/>
<path stroke="#682024" vector-effect="non-scaling-stroke" d="
  M 974.47 814.16
  L 977.52 784.30
  A 0.97 0.97 0.0 0 0 977.07 783.38
  L 974.61 781.80"
/>
<path stroke="#27070b" vector-effect="non-scaling-stroke" d="
  M 974.61 781.80
  Q 975.80 780.20 974.83 778.96
  Q 960.93 761.22 947.07 743.55
  A 0.81 0.79 70.0 0 0 946.42 743.24
  L 907.80 744.05"
/>
<path stroke="#9f7e7f" vector-effect="non-scaling-stroke" d="
  M 907.80 744.05
  L 903.01 737.74
  A 1.08 1.06 -17.3 0 0 902.17 737.31
  L 873.46 736.69"
/>
<path stroke="#421919" vector-effect="non-scaling-stroke" d="
  M 974.61 781.80
  L 953.71 767.81
  Q 952.80 767.20 953.32 768.16
  L 967.47 794.04
  A 3.20 3.19 -57.1 0 1 967.84 795.79
  L 965.21 827.98"
/>
<path stroke="#787874" vector-effect="non-scaling-stroke" d="
  M 965.21 827.98
  Q 963.63 827.86 963.31 828.31
  Q 959.84 833.25 956.18 838.14
  A 1.58 1.56 -26.8 0 0 955.88 839.03
  L 955.79 846.26"
/>
<path stroke="#421919" vector-effect="non-scaling-stroke" d="
  M 955.79 846.26
  L 933.02 861.94"
/>
<path stroke="#27070b" vector-effect="non-scaling-stroke" d="
  M 933.02 861.94
  L 891.73 864.66
  A 1.57 1.56 68.1 0 1 890.43 864.10
  L 859.94 827.51
  A 5.18 5.16 -65.5 0 1 858.74 824.28
  Q 858.38 802.48 857.94 780.25
  Q 857.92 779.12 858.65 778.64"
/>
<path stroke="#ba918c" vector-effect="non-scaling-stroke" d="
  M 959.22 856.95
  Q 958.07 855.32 956.99 853.63
  C 955.44 851.20 955.81 849.06 955.79 846.26"
/>
<path stroke="#421919" vector-effect="non-scaling-stroke" d="
  M 974.47 814.16
  L 973.28 826.90"
/>
<path stroke="#ba918c" vector-effect="non-scaling-stroke" d="
  M 972.74 828.21
  L 965.21 827.98"
/>
<path stroke="#787874" vector-effect="non-scaling-stroke" d="
  M 907.80 744.05
  L 915.60 754.46
  A 1.29 1.26 27.2 0 1 915.87 755.27
  L 915.50 777.24
  A 1.47 1.43 66.3 0 1 915.16 778.15
  L 899.85 796.46
  Q 899.49 796.89 898.92 796.86
  L 870.78 794.93
  Q 870.26 794.90 869.96 794.47
  L 858.65 778.64"
/>
<path stroke="#9f7e7f" vector-effect="non-scaling-stroke" d="
  M 858.65 778.64
  C 858.04 777.88 857.61 777.30 857.59 776.26
  Q 857.40 766.23 857.56 756.22"
/>
<path stroke="#682024" vector-effect="non-scaling-stroke" d="
  M 933.02 861.94
  L 930.39 864.03
  Q 929.62 864.64 930.59 864.77
  L 946.95 867.00
  Q 947.41 867.06 947.76 866.76
  L 959.22 856.95"
/>
<path stroke="#9f7e7f" vector-effect="non-scaling-stroke" d="
  M 959.22 856.95
  L 963.07 862.61"
/>
</g>
<path fill="#ffd478" d="
  M 1232.23 586.57
  Q 1220.74 572.56 1209.48 558.82
  Q 1207.76 556.73 1206.95 554.15
  Q 1200.27 532.86 1193.66 511.50
  A 1.49 1.46 47.7 0 1 1193.70 510.50
  L 1243.90 388.44
  A 5.62 5.56 -35.6 0 0 1244.32 385.99
  L 1232.95 156.84
  A 0.25 0.24 65.5 0 0 1232.53 156.68
  L 1168.82 224.59
  A 6.17 6.01 -83.2 0 1 1167.57 225.60
  L 986.63 335.09
  A 0.32 0.32 0.0 0 1 986.15 334.86
  L 977.26 265.80
  L 1250.95 132.02
  Q 1251.33 131.83 1251.35 132.25
  L 1265.06 525.73
  Q 1265.08 526.21 1264.85 526.63
  L 1232.23 586.57
  Z"
/>
<path fill="#574d4e" d="
  M 434.43 270.23
  L 425.37 339.27
  Q 425.26 340.04 424.60 339.64
  L 244.25 230.51
  A 8.91 8.71 -5.2 0 1 242.32 228.94
  L 179.12 161.57
  A 0.36 0.35 -65.5 0 0 178.51 161.80
  L 167.13 391.10
  A 4.03 3.96 -55.2 0 0 167.42 392.79
  L 217.68 514.99
  A 2.22 2.21 42.8 0 1 217.74 516.49
  L 204.02 560.51
  A 4.33 4.33 0.0 0 1 203.22 562.01
  L 177.59 593.32
  A 0.91 0.91 0.0 0 0 177.53 594.39
  L 194.92 621.29
  L 193.22 628.78
  L 137.66 526.66
  A 1.80 1.78 -58.2 0 1 137.45 525.74
  L 151.15 132.51
  Q 151.18 131.80 151.82 132.11
  L 434.43 270.23
  Z"
/>
<path fill="#ee8b48" d="
  M 1232.23 586.57
  L 1233.94 588.72
  Q 1234.25 589.10 1233.99 589.51
  L 1209.24 628.38
  L 1203.53 637.88
  Q 1200.85 640.42 1199.15 643.67
  Q 1198.11 645.64 1195.42 643.94
  L 1195.70 580.80
  A 1.39 1.37 22.2 0 0 1195.26 579.77
  L 1165.56 552.31
  L 1228.87 389.14
  Q 1229.31 387.98 1229.22 386.75
  L 1215.63 198.01
  Q 1215.58 197.24 1215.01 197.76
  Q 1194.17 216.94 1173.39 236.24
  Q 1169.67 239.70 1165.34 242.34
  Q 1069.94 300.57 974.50 358.71
  Q 966.62 363.51 963.47 365.27
  C 957.88 360.13 952.57 354.80 946.45 350.35
  Q 918.46 329.98 890.45 309.64
  Q 890.19 309.45 890.15 309.12
  Q 890.12 308.91 889.92 308.69
  L 898.29 304.38
  L 977.26 265.80
  L 986.15 334.86
  A 0.32 0.32 0.0 0 0 986.63 335.09
  L 1167.57 225.60
  A 6.17 6.01 -83.2 0 0 1168.82 224.59
  L 1232.53 156.68
  A 0.25 0.24 65.5 0 1 1232.95 156.84
  L 1244.32 385.99
  A 5.62 5.56 -35.6 0 1 1243.90 388.44
  L 1193.70 510.50
  A 1.49 1.46 47.7 0 0 1193.66 511.50
  Q 1200.27 532.86 1206.95 554.15
  Q 1207.76 556.73 1209.48 558.82
  Q 1220.74 572.56 1232.23 586.57
  Z"
/>
<path fill="#332d2d" d="
  M 434.43 270.23
  L 512.49 308.42
  L 512.01 309.21
  Q 511.75 309.64 511.35 309.94
  Q 483.83 329.91 456.33 349.91
  C 450.10 354.44 444.58 360.04 438.63 365.17
  L 234.27 240.57
  Q 233.18 239.91 232.25 239.04
  L 187.27 197.52
  A 0.22 0.21 -66.0 0 0 186.91 197.66
  L 173.27 387.03
  A 3.93 3.86 37.2 0 0 173.52 388.74
  L 236.70 551.55
  Q 237.09 551.89 236.19 552.72
  Q 221.78 566.03 207.17 579.59
  A 1.25 1.23 -22.1 0 0 206.78 580.49
  Q 207.00 608.87 207.09 637.50
  Q 207.09 638.82 206.05 638.55
  L 194.92 621.29
  L 177.53 594.39
  A 0.91 0.91 0.0 0 1 177.59 593.32
  L 203.22 562.01
  A 4.33 4.33 0.0 0 0 204.02 560.51
  L 217.74 516.49
  A 2.22 2.21 42.8 0 0 217.68 514.99
  L 167.42 392.79
  A 4.03 3.96 -55.2 0 1 167.13 391.10
  L 178.51 161.80
  A 0.36 0.35 -65.5 0 1 179.12 161.57
  L 242.32 228.94
  A 8.91 8.71 -5.2 0 0 244.25 230.51
  L 424.60 339.64
  Q 425.26 340.04 425.37 339.27
  L 434.43 270.23
  Z"
/>
<path fill="#e97664" d="
  M 438.63 365.17
  C 371.81 427.53 304.56 489.46 237.48 551.54
  Q 237.25 551.75 236.70 551.55
  L 173.52 388.74
  A 3.93 3.86 37.2 0 1 173.27 387.03
  L 186.91 197.66
  A 0.22 0.21 -66.0 0 1 187.27 197.52
  L 232.25 239.04
  Q 233.18 239.91 234.27 240.57
  L 438.63 365.17
  Z"
/>
<path fill="#e97664" d="
  M 1165.56 552.31
  L 963.47 365.27
  Q 966.62 363.51 974.50 358.71
  Q 1069.94 300.57 1165.34 242.34
  Q 1169.67 239.70 1173.39 236.24
  Q 1194.17 216.94 1215.01 197.76
  Q 1215.58 197.24 1215.63 198.01
  L 1229.22 386.75
  Q 1229.31 387.98 1228.87 389.14
  L 1165.56 552.31
  Z"
/>
<path fill="#f9f8f8" d="
  M 701.02 262.38
  L 602.97 279.86
  L 520.38 231.05
  Q 519.24 230.37 520.54 230.60
  L 701.02 262.38
  Z"
/>
<path fill="#574d4e" d="
  M 704.70 262.95
  C 704.16 263.17 703.62 263.09 703.10 263.40
  Q 640.78 300.04 578.60 336.62
  A 0.27 0.27 0.0 0 0 578.64 337.11
  L 657.89 367.31
  A 0.85 0.84 5.3 0 1 658.41 367.93
  L 681.47 484.27
  Q 681.68 485.37 680.88 484.59
  L 597.79 404.71
  Q 596.86 403.82 597.30 405.03
  C 614.62 452.86 632.05 501.03 647.99 549.48
  Q 648.52 551.10 649.20 553.97
  C 650.01 557.36 649.72 561.03 649.93 564.56
  Q 650.13 567.67 649.51 570.46
  Q 646.92 582.08 644.44 593.74
  Q 644.33 594.24 643.84 594.38
  C 637.93 596.04 630.49 601.57 625.32 605.06
  Q 607.31 617.24 589.79 630.06
  L 584.10 621.76
  Q 583.81 621.33 583.29 621.42
  L 368.53 656.76
  Q 368.06 656.84 367.73 657.17
  L 300.41 725.20
  Q 298.35 727.28 300.77 725.63
  Q 337.23 700.72 374.89 675.13
  Q 376.97 673.72 379.43 673.25
  Q 479.09 654.32 578.74 635.38
  Q 581.37 634.88 582.11 635.54
  L 507.84 690.27
  L 391.71 690.01
  Q 391.03 690.01 390.89 690.68
  Q 381.06 737.21 371.13 783.96
  Q 369.04 793.78 367.36 803.61
  Q 359.50 849.46 351.66 895.48
  Q 351.58 895.95 352.05 896.01
  L 432.43 907.08
  L 229.54 937.96
  A 3.54 3.51 21.3 0 0 227.86 938.69
  L 171.77 983.45
  L 80.04 974.12
  Q 79.07 974.02 79.96 973.61
  L 147.55 942.31
  L 174.12 930.49
  Q 174.61 930.28 175.01 930.65
  L 176.09 931.67
  A 0.26 0.26 0.0 0 0 176.53 931.53
  L 183.76 887.06
  L 184.76 880.05
  Q 185.26 879.07 185.26 878.06
  C 191.73 841.26 199.42 804.70 206.81 768.07
  Q 207.78 763.25 207.76 758.34
  Q 207.48 699.79 207.15 641.25
  Q 207.14 639.96 206.05 638.55
  Q 207.09 638.82 207.09 637.50
  Q 207.00 608.87 206.78 580.49
  A 1.25 1.23 -22.1 0 1 207.17 579.59
  Q 221.78 566.03 236.19 552.72
  Q 237.09 551.89 236.70 551.55
  Q 237.25 551.75 237.48 551.54
  C 304.56 489.46 371.81 427.53 438.63 365.17
  C 444.58 360.04 450.10 354.44 456.33 349.91
  Q 483.83 329.91 511.35 309.94
  Q 511.75 309.64 512.01 309.21
  L 512.49 308.42
  Q 513.04 308.81 513.49 308.48
  Q 523.68 300.94 534.01 293.50
  Q 535.95 292.10 538.31 291.68
  Q 570.41 285.93 602.51 280.28
  Q 603.01 280.19 602.97 279.86
  L 701.02 262.38
  L 704.72 261.92
  Q 705.24 261.85 705.01 262.33
  L 704.70 262.95
  Z"
/>
<path fill="#f9f8f8" d="
  M 704.70 262.95
  L 820.17 283.23
  A 0.55 0.55 0.0 0 1 820.62 283.77
  L 820.75 296.64
  L 712.78 306.81
  Q 710.51 307.02 712.77 307.33
  L 860.23 327.44
  A 0.22 0.22 0.0 0 1 860.27 327.87
  L 756.06 364.13
  Q 755.59 364.30 755.47 364.78
  L 719.69 508.16
  Q 719.37 509.44 720.13 508.36
  L 771.43 435.95
  Q 772.20 434.87 771.98 436.17
  C 765.37 474.91 758.45 514.03 753.09 553.16
  C 752.59 556.81 752.78 560.73 752.53 564.54
  Q 752.32 567.93 752.97 570.88
  Q 755.49 582.33 757.94 593.73
  Q 758.04 594.19 758.47 594.38
  Q 764.63 597.13 771.79 601.94
  Q 796.01 618.19 811.93 629.83
  L 770.58 690.51
  Q 770.53 690.58 770.60 690.62
  Q 770.64 690.63 770.67 690.63
  Q 770.72 690.63 770.78 690.56
  Q 794.69 663.12 818.66 635.72
  Q 818.97 635.37 819.29 635.22
  Q 820.24 634.77 820.11 635.69
  L 893.99 690.25
  L 826.91 690.50
  Q 826.33 690.51 826.01 690.99
  L 771.75 772.27
  A 1.30 1.29 -39.0 0 0 771.62 773.45
  L 798.71 843.33
  Q 771.27 851.94 743.99 860.48
  C 741.75 861.18 738.71 864.56 736.00 864.49
  Q 731.62 864.37 727.29 865.01
  L 676.81 865.44
  Q 675.24 863.52 673.26 862.90
  Q 639.74 852.41 606.24 841.82
  Q 604.79 841.36 605.15 839.77
  L 630.95 773.23
  Q 631.12 772.79 630.86 772.40
  L 576.52 691.00
  A 1.11 1.09 73.0 0 0 575.60 690.50
  L 507.84 690.27
  L 582.11 635.54
  Q 582.47 635.20 582.98 635.78
  Q 606.46 662.60 629.81 689.49
  Q 629.97 689.67 630.16 689.52
  L 630.17 689.52
  A 0.26 0.26 0.0 0 0 630.22 689.17
  L 589.79 630.06
  Q 607.31 617.24 625.32 605.06
  C 630.49 601.57 637.93 596.04 643.84 594.38
  Q 644.33 594.24 644.44 593.74
  Q 646.92 582.08 649.51 570.46
  Q 650.13 567.67 649.93 564.56
  C 649.72 561.03 650.01 557.36 649.20 553.97
  Q 648.52 551.10 647.99 549.48
  C 632.05 501.03 614.62 452.86 597.30 405.03
  Q 596.86 403.82 597.79 404.71
  L 680.88 484.59
  Q 681.68 485.37 681.47 484.27
  L 658.41 367.93
  A 0.85 0.84 5.3 0 0 657.89 367.31
  L 578.64 337.11
  A 0.27 0.27 0.0 0 1 578.60 336.62
  Q 640.78 300.04 703.10 263.40
  C 703.62 263.09 704.16 263.17 704.70 262.95
  Z
  M 770.81 823.63
  A 0.05 0.05 0.0 0 0 770.78 823.57
  L 705.97 796.05
  A 0.05 0.05 0.0 0 0 705.93 796.05
  L 645.81 819.58
  A 0.05 0.05 0.0 0 0 645.78 819.64
  L 645.99 820.31
  A 0.05 0.05 0.0 0 0 646.05 820.34
  L 705.08 807.06
  A 0.05 0.05 0.0 0 1 705.10 807.06
  L 770.72 823.75
  A 0.05 0.05 0.0 0 0 770.78 823.71
  L 770.81 823.63
  Z"
/>
<path fill="#f8b368" d="
  M 887.20 307.30
  Q 888.66 308.58 889.92 308.69
  Q 890.12 308.91 890.15 309.12
  Q 890.19 309.45 890.45 309.64
  Q 918.46 329.98 946.45 350.35
  C 952.57 354.80 957.88 360.13 963.47 365.27
  L 1165.56 552.31
  L 1195.26 579.77
  A 1.39 1.37 22.2 0 1 1195.70 580.80
  L 1195.42 643.94
  L 1195.95 654.09
  C 1195.70 655.85 1195.33 657.52 1195.32 659.33
  Q 1195.24 682.11 1194.91 704.62
  L 1139.83 720.98
  Q 1139.34 721.12 1139.07 721.56
  L 1119.41 753.22
  Q 1119.19 753.56 1119.35 753.93
  L 1130.00 779.74
  A 1.08 1.05 -0.9 0 0 1130.65 780.35
  L 1203.43 804.72
  Q 1203.57 804.79 1203.38 805.18
  Q 1203.19 805.54 1203.27 805.95
  Q 1208.43 831.66 1213.60 857.37
  C 1215.01 864.36 1216.09 871.79 1217.35 878.99
  Q 1217.47 880.05 1217.97 880.03
  Q 1217.56 880.30 1217.62 880.74
  Q 1218.06 883.89 1218.64 887.06
  L 1225.91 931.61
  Q 1226.04 932.38 1226.62 931.87
  L 1227.55 931.06
  Q 1227.95 930.71 1228.43 930.93
  L 1254.56 942.90
  L 1322.44 973.96
  Q 1323.42 974.41 1322.35 974.52
  L 1234.31 983.47
  L 1184.27 943.53
  Q 1183.43 942.86 1182.37 942.70
  Q 1082.45 927.52 981.97 912.27
  Q 978.50 911.74 975.05 912.25
  Q 962.61 914.06 950.20 915.90
  Q 949.94 915.93 949.83 915.84
  Q 949.70 915.72 949.61 915.48
  L 951.73 909.40
  L 1050.26 896.02
  Q 1050.95 895.92 1050.83 895.25
  Q 1042.94 848.89 1035.13 803.35
  Q 1033.45 793.53 1031.36 783.72
  Q 1021.44 737.05 1011.59 690.40
  A 0.49 0.48 84.1 0 0 1011.12 690.01
  L 893.99 690.25
  L 820.11 635.69
  Q 821.00 635.02 823.26 635.45
  Q 923.68 654.54 1023.84 673.58
  A 4.27 4.22 66.9 0 1 1025.43 674.23
  Q 1062.99 699.82 1100.65 725.50
  Q 1100.76 725.58 1100.85 725.56
  Q 1100.99 725.54 1101.08 725.40
  Q 1101.20 725.21 1101.05 725.06
  L 1033.87 657.19
  Q 1033.52 656.84 1033.04 656.76
  L 818.27 621.41
  A 0.91 0.90 21.4 0 0 817.38 621.79
  L 811.93 629.83
  Q 796.01 618.19 771.79 601.94
  Q 764.63 597.13 758.47 594.38
  Q 758.04 594.19 757.94 593.73
  Q 755.49 582.33 752.97 570.88
  Q 752.32 567.93 752.53 564.54
  C 752.78 560.73 752.59 556.81 753.09 553.16
  C 758.45 514.03 765.37 474.91 771.98 436.17
  Q 772.20 434.87 771.43 435.95
  L 720.13 508.36
  Q 719.37 509.44 719.69 508.16
  L 755.47 364.78
  Q 755.59 364.30 756.06 364.13
  L 860.27 327.87
  A 0.22 0.22 0.0 0 0 860.23 327.44
  L 712.77 307.33
  Q 710.51 307.02 712.78 306.81
  L 820.75 296.64
  L 866.05 292.41
  Q 866.57 292.36 866.99 292.66
  L 887.20 307.30
  Z
  M 1139.37 649.62
  A 0.56 0.56 0.0 0 0 1138.81 649.87
  L 1120.33 677.96
  A 0.56 0.56 0.0 0 0 1120.33 678.58
  L 1130.52 693.53
  A 0.56 0.56 0.0 0 0 1130.99 693.77
  L 1145.69 693.78
  A 0.56 0.56 0.0 0 0 1146.13 693.57
  L 1162.36 673.57
  A 0.56 0.56 0.0 0 0 1162.48 673.18
  L 1161.15 653.89
  A 0.56 0.56 0.0 0 0 1160.69 653.37
  L 1139.37 649.62
  Z"
/>
<path fill="#f9f8f8" d="
  M 898.29 304.38
  L 889.92 308.69
  Q 888.66 308.58 887.20 307.30
  Q 887.38 304.82 889.00 304.79
  Q 893.55 304.71 898.29 304.38
  Z"
/>
<path fill="#332d2d" d="
  M 589.79 630.06
  L 630.22 689.17
  A 0.26 0.26 0.0 0 1 630.17 689.52
  L 630.16 689.52
  Q 629.97 689.67 629.81 689.49
  Q 606.46 662.60 582.98 635.78
  Q 582.47 635.20 582.11 635.54
  Q 581.37 634.88 578.74 635.38
  Q 479.09 654.32 379.43 673.25
  Q 376.97 673.72 374.89 675.13
  Q 337.23 700.72 300.77 725.63
  Q 298.35 727.28 300.41 725.20
  L 367.73 657.17
  Q 368.06 656.84 368.53 656.76
  L 583.29 621.42
  Q 583.81 621.33 584.10 621.76
  L 589.79 630.06
  Z"
/>
<path fill="#f9f8f8" d="
  M 194.92 621.29
  L 206.05 638.55
  Q 207.14 639.96 207.15 641.25
  Q 207.48 699.79 207.76 758.34
  Q 207.78 763.25 206.81 768.07
  C 199.42 804.70 191.73 841.26 185.26 878.06
  Q 184.17 878.40 183.69 877.45
  Q 183.11 876.31 183.00 876.16
  Q 172.87 863.13 163.28 850.88
  Q 150.44 834.37 137.73 818.79
  Q 135.13 815.60 133.40 811.90
  Q 121.94 787.45 110.49 762.92
  Q 110.29 762.49 110.76 762.53
  L 192.25 768.12
  Q 192.79 768.16 192.91 767.64
  L 193.74 764.07
  A 0.29 0.28 19.6 0 0 193.58 763.74
  L 102.82 721.20
  Q 101.66 720.66 102.94 720.78
  L 172.63 727.12
  A 0.46 0.45 8.4 0 0 173.12 726.76
  L 193.22 628.78
  L 194.92 621.29
  Z"
/>
<path fill="#e8794e" d="
  M 820.11 635.69
  Q 820.24 634.77 819.29 635.22
  Q 818.97 635.37 818.66 635.72
  Q 794.69 663.12 770.78 690.56
  Q 770.72 690.63 770.67 690.63
  Q 770.64 690.63 770.60 690.62
  Q 770.53 690.58 770.58 690.51
  L 811.93 629.83
  L 817.38 621.79
  A 0.91 0.90 21.4 0 1 818.27 621.41
  L 1033.04 656.76
  Q 1033.52 656.84 1033.87 657.19
  L 1101.05 725.06
  Q 1101.20 725.21 1101.08 725.40
  Q 1100.99 725.54 1100.85 725.56
  Q 1100.76 725.58 1100.65 725.50
  Q 1062.99 699.82 1025.43 674.23
  A 4.27 4.22 66.9 0 0 1023.84 673.58
  Q 923.68 654.54 823.26 635.45
  Q 821.00 635.02 820.11 635.69
  Z"
/>
<path fill="#f9f8f8" d="
  M 1209.24 628.38
  L 1229.39 726.68
  A 0.56 0.56 0.0 0 0 1229.98 727.12
  L 1299.56 720.77
  Q 1300.90 720.65 1299.68 721.22
  L 1209.30 763.58
  Q 1208.82 763.80 1208.94 764.32
  L 1209.71 767.57
  Q 1209.85 768.15 1210.44 768.11
  L 1291.72 762.53
  Q 1292.21 762.50 1292.00 762.94
  Q 1280.51 787.73 1268.90 812.34
  Q 1267.20 815.95 1264.61 819.08
  Q 1252.37 833.91 1240.61 849.11
  Q 1240.10 849.77 1239.47 850.28
  C 1238.79 850.97 1238.61 851.85 1238.08 852.52
  Q 1228.82 864.15 1219.72 875.92
  C 1219.13 876.68 1219.08 877.45 1218.89 878.39
  A 0.66 0.66 0.0 0 1 1218.31 878.91
  L 1217.35 878.99
  C 1216.09 871.79 1215.01 864.36 1213.60 857.37
  Q 1208.43 831.66 1203.27 805.95
  Q 1203.19 805.54 1203.38 805.18
  Q 1203.57 804.79 1203.43 804.72
  Q 1203.76 804.35 1203.69 804.00
  Q 1199.21 783.31 1195.33 762.49
  Q 1194.36 757.32 1194.62 754.50
  Q 1196.85 729.74 1194.91 704.62
  Q 1195.24 682.11 1195.32 659.33
  C 1195.33 657.52 1195.70 655.85 1195.95 654.09
  L 1203.53 637.88
  L 1209.24 628.38
  Z"
/>
<path fill="#ffd478" d="
  M 1203.53 637.88
  L 1195.95 654.09
  L 1195.42 643.94
  Q 1198.11 645.64 1199.15 643.67
  Q 1200.85 640.42 1203.53 637.88
  Z"
/>
<path fill="#e8794e" d="
  M 1139.37 649.62
  L 1160.69 653.37
  A 0.56 0.56 0.0 0 1 1161.15 653.89
  L 1162.48 673.18
  A 0.56 0.56 0.0 0 1 1162.36 673.57
  L 1146.13 693.57
  A 0.56 0.56 0.0 0 1 1145.69 693.78
  L 1130.99 693.77
  A 0.56 0.56 0.0 0 1 1130.52 693.53
  L 1120.33 678.58
  A 0.56 0.56 0.0 0 1 1120.33 677.96
  L 1138.81 649.87
  A 0.56 0.56 0.0 0 1 1139.37 649.62
  Z"
/>
<path fill="#340108" d="
  M 507.84 690.27
  L 575.60 690.50
  A 1.11 1.09 73.0 0 1 576.52 691.00
  L 630.86 772.40
  Q 631.12 772.79 630.95 773.23
  L 605.15 839.77
  Q 601.75 848.79 598.15 857.71
  Q 597.38 859.62 595.77 860.92
  Q 571.33 880.73 548.07 899.53
  L 523.42 919.43
  L 432.43 907.08
  L 352.05 896.01
  Q 351.58 895.95 351.66 895.48
  Q 359.50 849.46 367.36 803.61
  Q 369.04 793.78 371.13 783.96
  Q 381.06 737.21 390.89 690.68
  Q 391.03 690.01 391.71 690.01
  L 507.84 690.27
  Z
  M 436.88 721.79
  L 402.79 721.59
  A 0.62 0.61 -82.6 0 0 402.20 722.05
  Q 393.60 757.42 384.97 792.81
  Q 382.60 802.54 380.68 812.33
  Q 373.93 846.66 367.20 880.97
  A 0.36 0.35 -81.2 0 0 367.51 881.40
  L 520.22 899.44
  Q 520.64 899.49 520.97 899.23
  L 576.44 856.25
  Q 576.91 855.89 577.01 855.30
  L 592.43 770.22
  A 1.51 1.45 37.4 0 0 592.28 769.24
  L 567.83 722.44
  Q 567.59 722.00 567.09 722.00
  L 536.21 721.89
  L 533.47 718.30
  Q 533.10 717.83 532.51 717.81
  L 442.22 715.95
  A 1.18 1.17 19.7 0 0 441.28 716.39
  L 436.88 721.79
  Z"
/>
<path fill="#340108" d="
  M 951.73 909.40
  L 879.47 919.20
  Q 878.96 919.27 878.56 918.95
  L 868.12 910.59
  L 805.80 860.23
  A 3.73 3.63 -82.0 0 1 804.68 858.70
  L 798.71 843.33
  L 771.62 773.45
  A 1.30 1.29 -39.0 0 1 771.75 772.27
  L 826.01 690.99
  Q 826.33 690.51 826.91 690.50
  L 893.99 690.25
  L 1011.12 690.01
  A 0.49 0.48 84.1 0 1 1011.59 690.40
  Q 1021.44 737.05 1031.36 783.72
  Q 1033.45 793.53 1035.13 803.35
  Q 1042.94 848.89 1050.83 895.25
  Q 1050.95 895.92 1050.26 896.02
  L 951.73 909.40
  Z
  M 865.71 721.91
  L 835.26 721.98
  Q 834.94 721.98 834.79 722.26
  L 810.25 769.22
  Q 810.00 769.69 810.09 770.21
  L 825.56 855.54
  A 0.98 0.92 15.7 0 0 825.91 856.12
  L 881.68 899.33
  A 0.66 0.65 60.1 0 0 882.15 899.46
  L 1035.18 881.39
  A 0.22 0.22 0.0 0 0 1035.37 881.13
  Q 1028.65 847.00 1021.95 812.81
  Q 1020.02 802.98 1017.66 793.29
  Q 1009.00 757.72 1000.30 721.97
  A 0.51 0.50 82.1 0 0 999.80 721.59
  L 965.63 721.78
  L 961.21 716.38
  Q 960.86 715.94 960.30 715.95
  L 869.98 717.82
  Q 869.50 717.83 869.18 718.18
  C 868.25 719.23 867.09 721.67 865.71 721.91
  Z"
/>
<path fill="#e8794e" d="
  M 1194.91 704.62
  Q 1196.85 729.74 1194.62 754.50
  Q 1194.36 757.32 1195.33 762.49
  Q 1199.21 783.31 1203.69 804.00
  Q 1203.76 804.35 1203.43 804.72
  L 1130.65 780.35
  A 1.08 1.05 -0.9 0 1 1130.00 779.74
  L 1119.35 753.93
  Q 1119.19 753.56 1119.41 753.22
  L 1139.07 721.56
  Q 1139.34 721.12 1139.83 720.98
  L 1194.91 704.62
  Z"
/>
<path fill="#b07171" d="
  M 536.21 721.89
  L 571.58 769.22
  A 1.31 1.26 28.0 0 1 571.84 770.02
  L 570.74 836.48
  Q 570.73 836.97 570.42 837.35
  L 558.01 852.13
  L 558.23 839.49
  Q 558.24 838.97 557.96 838.54
  L 555.46 834.82
  L 557.80 832.16
  A 1.58 1.55 -24.6 0 0 558.18 831.17
  L 559.13 774.43
  Q 559.14 773.84 558.79 773.37
  L 526.33 729.72
  Q 526.03 729.32 525.53 729.31
  L 448.23 727.69
  Q 447.79 727.69 447.52 728.03
  L 412.60 772.70
  Q 412.26 773.13 412.26 773.69
  L 412.32 829.48
  A 1.29 1.20 -64.4 0 0 412.55 830.21
  L 444.08 874.68
  A 1.24 1.22 74.0 0 0 445.00 875.20
  L 517.52 880.19
  A 0.69 0.67 -67.2 0 0 518.10 879.94
  L 532.89 862.14
  L 548.47 863.81
  L 523.82 893.15
  A 0.67 0.66 21.9 0 1 523.25 893.39
  L 438.48 887.59
  Q 437.63 887.53 437.14 886.84
  L 400.42 835.32
  Q 400.08 834.84 400.08 834.26
  L 400.00 769.74
  A 2.74 2.74 0.0 0 1 400.60 768.03
  L 436.88 721.79
  L 441.28 716.39
  A 1.18 1.17 19.7 0 1 442.22 715.95
  L 532.51 717.81
  Q 533.10 717.83 533.47 718.30
  L 536.21 721.89
  Z"
/>
<path fill="#b07171" d="
  M 965.63 721.78
  L 1002.21 768.40
  Q 1002.51 768.77 1002.51 769.25
  L 1002.47 834.33
  A 1.58 1.57 -27.5 0 1 1002.18 835.24
  L 965.15 887.18
  Q 964.91 887.52 964.49 887.55
  L 879.53 893.38
  A 1.13 1.12 67.8 0 1 878.59 892.98
  L 832.07 837.32
  Q 831.80 837.00 831.79 836.59
  L 830.67 770.27
  A 1.90 1.88 63.6 0 1 831.06 769.09
  L 865.99 722.38
  A 0.27 0.27 0.0 0 0 866.02 722.10
  Q 865.92 721.87 865.71 721.91
  C 867.09 721.67 868.25 719.23 869.18 718.18
  Q 869.50 717.83 869.98 717.82
  L 960.30 715.95
  Q 960.86 715.94 961.21 716.38
  L 965.63 721.78
  Z
  M 873.46 736.69
  L 871.98 736.97
  Q 871.50 737.06 871.19 737.45
  Q 864.70 745.65 858.24 753.87
  C 857.65 754.61 857.67 755.34 857.56 756.22
  Q 857.77 755.31 856.88 755.51
  A 0.73 0.64 -73.8 0 0 856.49 755.76
  L 843.20 772.76
  Q 842.95 773.09 842.95 773.51
  L 842.98 829.49
  A 1.32 1.28 -63.9 0 0 843.23 830.26
  L 874.66 874.59
  Q 875.06 875.16 875.75 875.20
  L 947.99 880.18
  Q 948.48 880.21 948.79 879.84
  L 963.07 862.61
  L 978.32 863.69
  A 1.10 1.10 0.0 0 0 979.26 863.27
  L 987.34 852.80
  Q 987.65 852.40 987.66 851.90
  Q 987.85 845.83 987.92 839.76
  C 987.94 838.16 986.30 836.60 985.50 835.31
  C 987.39 833.81 988.79 832.46 988.84 829.82
  Q 989.33 801.89 989.76 774.20
  A 1.23 1.18 -63.7 0 0 989.54 773.50
  L 956.77 729.46
  A 0.35 0.33 -16.8 0 0 956.49 729.32
  L 879.03 727.70
  Q 878.49 727.69 878.15 728.11
  L 872.39 735.41
  A 0.74 0.74 0.0 0 0 872.85 736.60
  L 873.46 736.69
  Z"
/>
<path fill="#f9f8f8" d="
  M 436.88 721.79
  L 400.60 768.03
  A 2.74 2.74 0.0 0 0 400.00 769.74
  L 400.08 834.26
  Q 400.08 834.84 400.42 835.32
  L 437.14 886.84
  Q 437.63 887.53 438.48 887.59
  L 523.25 893.39
  A 0.67 0.66 21.9 0 0 523.82 893.15
  L 548.47 863.81
  Q 553.71 858.79 558.01 852.13
  L 570.42 837.35
  Q 570.73 836.97 570.74 836.48
  L 571.84 770.02
  A 1.31 1.26 28.0 0 0 571.58 769.22
  L 536.21 721.89
  L 567.09 722.00
  Q 567.59 722.00 567.83 722.44
  L 592.28 769.24
  A 1.51 1.45 37.4 0 1 592.43 770.22
  L 577.01 855.30
  Q 576.91 855.89 576.44 856.25
  L 520.97 899.23
  Q 520.64 899.49 520.22 899.44
  L 367.51 881.40
  A 0.36 0.35 -81.2 0 1 367.20 880.97
  Q 373.93 846.66 380.68 812.33
  Q 382.60 802.54 384.97 792.81
  Q 393.60 757.42 402.20 722.05
  A 0.62 0.61 -82.6 0 1 402.79 721.59
  L 436.88 721.79
  Z"
/>
<path fill="#f9f8f8" d="
  M 865.71 721.91
  Q 865.92 721.87 866.02 722.10
  A 0.27 0.27 0.0 0 1 865.99 722.38
  L 831.06 769.09
  A 1.90 1.88 63.6 0 0 830.67 770.27
  L 831.79 836.59
  Q 831.80 837.00 832.07 837.32
  L 878.59 892.98
  A 1.13 1.12 67.8 0 0 879.53 893.38
  L 964.49 887.55
  Q 964.91 887.52 965.15 887.18
  L 1002.18 835.24
  A 1.58 1.57 -27.5 0 0 1002.47 834.33
  L 1002.51 769.25
  Q 1002.51 768.77 1002.21 768.40
  L 965.63 721.78
  L 999.80 721.59
  A 0.51 0.50 82.1 0 1 1000.30 721.97
  Q 1009.00 757.72 1017.66 793.29
  Q 1020.02 802.98 1021.95 812.81
  Q 1028.65 847.00 1035.37 881.13
  A 0.22 0.22 0.0 0 1 1035.18 881.39
  L 882.15 899.46
  A 0.66 0.65 60.1 0 1 881.68 899.33
  L 825.91 856.12
  A 0.98 0.92 15.7 0 1 825.56 855.54
  L 810.09 770.21
  Q 810.00 769.69 810.25 769.22
  L 834.79 722.26
  Q 834.94 721.98 835.26 721.98
  L 865.71 721.91
  Z"
/>
<path fill="#4d0d16" d="
  M 555.46 834.82
  L 551.27 828.79
  Q 550.96 828.36 550.44 828.34
  L 542.94 828.15
  L 547.40 783.86
  Q 547.45 783.35 547.07 782.99
  Q 545.84 781.84 544.27 781.13
  Q 544.79 781.10 544.56 780.24
  Q 544.47 779.88 544.17 779.49
  Q 531.25 762.11 518.38 744.89
  A 0.93 0.93 0.0 0 0 517.66 744.52
  L 477.34 743.67
  L 472.82 737.70
  A 1.03 1.00 71.7 0 0 472.03 737.29
  L 441.75 736.68
  A 0.50 0.49 -70.7 0 0 441.36 736.87
  L 427.68 754.24
  Q 427.31 754.71 427.31 755.30
  L 427.38 776.67
  Q 427.38 777.14 427.67 777.52
  L 428.54 778.63
  Q 427.29 779.00 427.30 779.75
  Q 427.45 799.25 427.35 818.75
  Q 427.34 821.51 427.50 824.34
  A 1.78 1.71 26.7 0 0 427.82 825.24
  L 452.52 860.00
  A 1.73 1.73 0.0 0 0 453.82 860.72
  L 499.98 863.61
  Q 499.81 863.75 499.88 863.99
  Q 499.97 864.30 500.28 864.34
  L 516.69 866.61
  Q 517.22 866.68 517.62 866.33
  L 529.16 856.47
  L 532.89 862.14
  L 518.10 879.94
  A 0.69 0.67 -67.2 0 1 517.52 880.19
  L 445.00 875.20
  A 1.24 1.22 74.0 0 1 444.08 874.68
  L 412.55 830.21
  A 1.29 1.20 -64.4 0 1 412.32 829.48
  L 412.26 773.69
  Q 412.26 773.13 412.60 772.70
  L 447.52 728.03
  Q 447.79 727.69 448.23 727.69
  L 525.53 729.31
  Q 526.03 729.32 526.33 729.72
  L 558.79 773.37
  Q 559.14 773.84 559.13 774.43
  L 558.18 831.17
  A 1.58 1.55 -24.6 0 1 557.80 832.16
  L 555.46 834.82
  Z"
/>
<path fill="#4d0d16" d="
  M 985.50 835.31
  L 981.00 828.81
  A 1.03 1.02 72.9 0 0 980.18 828.37
  L 972.74 828.21
  L 973.28 826.90
  Q 975.09 825.71 975.22 823.00
  Q 975.46 817.71 974.47 814.16
  L 977.52 784.30
  A 0.97 0.97 0.0 0 0 977.07 783.38
  L 974.61 781.80
  Q 975.80 780.20 974.83 778.96
  Q 960.93 761.22 947.07 743.55
  A 0.81 0.79 70.0 0 0 946.42 743.24
  L 907.80 744.05
  L 903.01 737.74
  A 1.08 1.06 -17.3 0 0 902.17 737.31
  L 873.46 736.69
  L 872.85 736.60
  A 0.74 0.74 0.0 0 1 872.39 735.41
  L 878.15 728.11
  Q 878.49 727.69 879.03 727.70
  L 956.49 729.32
  A 0.35 0.33 -16.8 0 1 956.77 729.46
  L 989.54 773.50
  A 1.23 1.18 -63.7 0 1 989.76 774.20
  Q 989.33 801.89 988.84 829.82
  C 988.79 832.46 987.39 833.81 985.50 835.31
  Z"
/>
<path fill="#f0efe7" d="
  M 907.80 744.05
  L 915.60 754.46
  A 1.29 1.26 27.2 0 1 915.87 755.27
  L 915.50 777.24
  A 1.47 1.43 66.3 0 1 915.16 778.15
  L 899.85 796.46
  Q 899.49 796.89 898.92 796.86
  L 870.78 794.93
  Q 870.26 794.90 869.96 794.47
  L 858.65 778.64
  C 858.04 777.88 857.61 777.30 857.59 776.26
  Q 857.40 766.23 857.56 756.22
  C 857.67 755.34 857.65 754.61 858.24 753.87
  Q 864.70 745.65 871.19 737.45
  Q 871.50 737.06 871.98 736.97
  L 873.46 736.69
  L 902.17 737.31
  A 1.08 1.06 -17.3 0 1 903.01 737.74
  L 907.80 744.05
  Z"
/>
<path fill="#f0efe7" d="
  M 477.34 743.67
  L 485.47 754.52
  Q 485.72 754.85 485.71 755.26
  L 485.33 777.22
  A 1.52 1.46 66.7 0 1 484.98 778.16
  L 469.69 796.45
  Q 469.32 796.89 468.75 796.85
  L 440.74 794.94
  A 1.27 1.23 -15.2 0 1 439.80 794.42
  L 428.54 778.63
  L 427.67 777.52
  Q 427.38 777.14 427.38 776.67
  L 427.31 755.30
  Q 427.31 754.71 427.68 754.24
  L 441.36 736.87
  A 0.50 0.49 -70.7 0 1 441.75 736.68
  L 472.03 737.29
  A 1.03 1.00 71.7 0 1 472.82 737.70
  L 477.34 743.67
  Z"
/>
<path fill="#000000" d="
  M 974.61 781.80
  L 953.71 767.81
  Q 952.80 767.20 953.32 768.16
  L 967.47 794.04
  A 3.20 3.19 -57.1 0 1 967.84 795.79
  L 965.21 827.98
  Q 963.63 827.86 963.31 828.31
  Q 959.84 833.25 956.18 838.14
  A 1.58 1.56 -26.8 0 0 955.88 839.03
  L 955.79 846.26
  L 933.02 861.94
  L 891.73 864.66
  A 1.57 1.56 68.1 0 1 890.43 864.10
  L 859.94 827.51
  A 5.18 5.16 -65.5 0 1 858.74 824.28
  Q 858.38 802.48 857.94 780.25
  Q 857.92 779.12 858.65 778.64
  L 869.96 794.47
  Q 870.26 794.90 870.78 794.93
  L 898.92 796.86
  Q 899.49 796.89 899.85 796.46
  L 915.16 778.15
  A 1.47 1.43 66.3 0 0 915.50 777.24
  L 915.87 755.27
  A 1.29 1.26 27.2 0 0 915.60 754.46
  L 907.80 744.05
  L 946.42 743.24
  A 0.81 0.79 70.0 0 1 947.07 743.55
  Q 960.93 761.22 974.83 778.96
  Q 975.80 780.20 974.61 781.80
  Z"
/>
<path fill="#000000" d="
  M 477.34 743.67
  L 517.66 744.52
  A 0.93 0.93 0.0 0 1 518.38 744.89
  Q 531.25 762.11 544.17 779.49
  Q 544.47 779.88 544.56 780.24
  Q 544.79 781.10 544.27 781.13
  L 523.44 767.23
  Q 522.71 766.74 523.11 767.52
  Q 529.82 780.53 536.92 793.32
  Q 537.74 794.80 537.60 796.51
  Q 536.27 812.41 534.88 827.60
  Q 530.14 832.51 526.48 838.35
  Q 526.22 838.76 526.22 839.24
  L 526.18 845.39
  L 499.98 863.61
  L 453.82 860.72
  A 1.73 1.73 0.0 0 1 452.52 860.00
  L 427.82 825.24
  A 1.78 1.71 26.7 0 1 427.50 824.34
  Q 427.34 821.51 427.35 818.75
  Q 427.45 799.25 427.30 779.75
  Q 427.29 779.00 428.54 778.63
  L 439.80 794.42
  A 1.27 1.23 -15.2 0 0 440.74 794.94
  L 468.75 796.85
  Q 469.32 796.89 469.69 796.45
  L 484.98 778.16
  A 1.52 1.46 66.7 0 0 485.33 777.22
  L 485.71 755.26
  Q 485.72 754.85 485.47 754.52
  L 477.34 743.67
  Z"
/>
<path fill="#4d0d16" d="
  M 857.56 756.22
  Q 857.40 766.23 857.59 776.26
  C 857.61 777.30 858.04 777.88 858.65 778.64
  Q 857.92 779.12 857.94 780.25
  Q 858.38 802.48 858.74 824.28
  A 5.18 5.16 -65.5 0 0 859.94 827.51
  L 890.43 864.10
  A 1.57 1.56 68.1 0 0 891.73 864.66
  L 933.02 861.94
  L 930.39 864.03
  Q 929.62 864.64 930.59 864.77
  L 946.95 867.00
  Q 947.41 867.06 947.76 866.76
  L 959.22 856.95
  L 963.07 862.61
  L 948.79 879.84
  Q 948.48 880.21 947.99 880.18
  L 875.75 875.20
  Q 875.06 875.16 874.66 874.59
  L 843.23 830.26
  A 1.32 1.28 -63.9 0 1 842.98 829.49
  L 842.95 773.51
  Q 842.95 773.09 843.20 772.76
  L 856.49 755.76
  A 0.73 0.64 -73.8 0 1 856.88 755.51
  Q 857.77 755.31 857.56 756.22
  Z"
/>
<path fill="#833231" d="
  M 544.27 781.13
  Q 545.84 781.84 547.07 782.99
  Q 547.45 783.35 547.40 783.86
  L 542.94 828.15
  L 534.88 827.60
  Q 536.27 812.41 537.60 796.51
  Q 537.74 794.80 536.92 793.32
  Q 529.82 780.53 523.11 767.52
  Q 522.71 766.74 523.44 767.23
  L 544.27 781.13
  Z"
/>
<path fill="#833231" d="
  M 974.61 781.80
  L 977.07 783.38
  A 0.97 0.97 0.0 0 1 977.52 784.30
  L 974.47 814.16
  L 973.28 826.90
  L 972.74 828.21
  L 965.21 827.98
  L 967.84 795.79
  A 3.20 3.19 -57.1 0 0 967.47 794.04
  L 953.32 768.16
  Q 952.80 767.20 953.71 767.81
  L 974.61 781.80
  Z"
/>
<path fill="#f8b368" d="
  M 770.81 823.63
  L 770.78 823.71
  A 0.05 0.05 0.0 0 1 770.72 823.75
  L 705.10 807.06
  A 0.05 0.05 0.0 0 0 705.08 807.06
  L 646.05 820.34
  A 0.05 0.05 0.0 0 1 645.99 820.31
  L 645.78 819.64
  A 0.05 0.05 0.0 0 1 645.81 819.58
  L 705.93 796.05
  A 0.05 0.05 0.0 0 1 705.97 796.05
  L 770.78 823.57
  A 0.05 0.05 0.0 0 1 770.81 823.63
  Z"
/>
<path fill="#000000" d="
  M 973.28 826.90
  L 974.47 814.16
  Q 975.46 817.71 975.22 823.00
  Q 975.09 825.71 973.28 826.90
  Z"
/>
<path fill="#f0efe7" d="
  M 534.88 827.60
  L 542.94 828.15
  L 550.44 828.34
  Q 550.96 828.36 551.27 828.79
  L 555.46 834.82
  L 557.96 838.54
  Q 558.24 838.97 558.23 839.49
  L 558.01 852.13
  Q 553.71 858.79 548.47 863.81
  L 532.89 862.14
  L 529.16 856.47
  C 527.76 854.40 526.31 852.90 526.22 850.23
  Q 526.14 847.91 526.18 845.39
  L 526.22 839.24
  Q 526.22 838.76 526.48 838.35
  Q 530.14 832.51 534.88 827.60
  Z"
/>
<path fill="#f0efe7" d="
  M 965.21 827.98
  L 972.74 828.21
  L 980.18 828.37
  A 1.03 1.02 72.9 0 1 981.00 828.81
  L 985.50 835.31
  C 986.30 836.60 987.94 838.16 987.92 839.76
  Q 987.85 845.83 987.66 851.90
  Q 987.65 852.40 987.34 852.80
  L 979.26 863.27
  A 1.10 1.10 0.0 0 1 978.32 863.69
  L 963.07 862.61
  L 959.22 856.95
  Q 958.07 855.32 956.99 853.63
  C 955.44 851.20 955.81 849.06 955.79 846.26
  L 955.88 839.03
  A 1.58 1.56 -26.8 0 1 956.18 838.14
  Q 959.84 833.25 963.31 828.31
  Q 963.63 827.86 965.21 827.98
  Z"
/>
<path fill="#f0efe7" d="
  M 605.15 839.77
  Q 604.79 841.36 606.24 841.82
  Q 639.74 852.41 673.26 862.90
  Q 675.24 863.52 676.81 865.44
  L 652.77 865.64
  A 0.21 0.21 0.0 0 0 652.61 865.99
  L 706.72 927.76
  Q 706.32 928.75 706.01 928.72
  Q 705.75 928.33 705.80 928.00
  Q 705.82 927.85 705.74 927.86
  Q 705.61 927.88 705.58 927.99
  Q 697.14 960.99 688.64 993.96
  Q 688.54 994.36 688.15 994.45
  L 620.01 1010.45
  Q 620.81 1009.43 619.80 1008.94
  Q 585.53 992.00 571.36 984.51
  Q 590.69 986.20 608.50 988.28
  Q 609.09 988.34 610.78 988.98
  L 615.55 994.28
  Q 615.77 994.52 615.99 994.29
  L 620.47 989.46
  Q 620.67 989.24 620.47 989.02
  L 615.51 983.51
  Q 614.92 982.86 614.38 983.55
  L 610.81 988.17
  L 561.30 980.80
  Q 559.76 978.45 555.78 977.38
  A 1.47 1.47 0.0 0 1 554.69 976.06
  L 553.28 956.29
  Q 568.82 958.20 583.74 959.81
  Q 584.53 959.89 584.67 960.30
  L 589.77 966.01
  Q 589.98 966.25 590.20 966.01
  L 594.66 961.13
  Q 594.80 960.98 594.66 960.82
  L 589.45 955.12
  Q 589.04 954.67 588.66 955.15
  L 585.27 959.34
  L 552.83 954.73
  L 550.66 926.97
  Q 563.70 928.01 576.49 929.61
  C 588.71 931.13 600.33 932.24 609.58 933.37
  Q 609.94 933.42 610.81 933.95
  L 615.62 939.17
  Q 615.82 939.39 616.03 939.18
  L 620.49 934.44
  Q 620.71 934.20 620.49 933.96
  L 615.29 928.24
  Q 614.93 927.84 614.60 928.27
  L 610.85 933.08
  L 550.34 924.04
  L 548.07 899.53
  Q 571.33 880.73 595.77 860.92
  Q 597.38 859.62 598.15 857.71
  Q 601.75 848.79 605.15 839.77
  Z"
/>
<path fill="#f0efe7" d="
  M 798.71 843.33
  L 804.68 858.70
  A 3.73 3.63 -82.0 0 0 805.80 860.23
  L 868.12 910.59
  Q 866.21 919.20 866.50 928.12
  L 800.46 937.75
  L 796.81 932.96
  A 0.41 0.41 0.0 0 0 796.18 932.93
  L 790.91 938.67
  Q 790.76 938.83 790.91 938.98
  L 795.46 943.91
  Q 795.64 944.10 795.82 943.91
  L 801.05 938.40
  L 865.82 931.18
  L 863.61 959.17
  L 826.71 964.50
  L 822.60 959.64
  A 0.26 0.26 0.0 0 0 822.21 959.63
  L 816.86 965.44
  Q 816.67 965.64 816.86 965.85
  L 821.25 970.68
  A 0.32 0.31 -44.4 0 0 821.72 970.68
  L 826.79 965.10
  L 863.28 961.11
  L 862.37 974.15
  A 0.65 0.64 -10.5 0 1 862.00 974.68
  Q 849.85 980.10 837.45 987.22
  L 800.30 992.70
  L 797.06 988.69
  A 0.66 0.66 0.0 0 0 796.07 988.66
  L 790.89 994.21
  A 0.25 0.25 0.0 0 0 790.89 994.56
  L 795.45 999.43
  Q 795.64 999.64 795.83 999.43
  L 800.79 994.04
  Q 801.00 993.20 801.50 993.14
  Q 811.91 991.90 829.88 990.32
  L 793.60 1008.82
  L 726.21 993.94
  Q 725.81 993.85 725.72 993.45
  L 711.57 928.25
  Q 711.51 928.00 711.32 928.17
  Q 711.21 928.27 711.21 928.54
  L 710.28 928.28
  L 762.90 865.26
  Q 763.39 864.68 762.63 864.69
  L 727.29 865.01
  Q 731.62 864.37 736.00 864.49
  C 738.71 864.56 741.75 861.18 743.99 860.48
  Q 771.27 851.94 798.71 843.33
  Z"
/>
<path fill="#833231" d="
  M 526.18 845.39
  Q 526.14 847.91 526.22 850.23
  C 526.31 852.90 527.76 854.40 529.16 856.47
  L 517.62 866.33
  Q 517.22 866.68 516.69 866.61
  L 500.28 864.34
  Q 499.97 864.30 499.88 863.99
  Q 499.81 863.75 499.98 863.61
  L 526.18 845.39
  Z"
/>
<path fill="#f0efe7" d="
  M 163.28 850.88
  Q 172.87 863.13 183.00 876.16
  Q 183.11 876.31 183.69 877.45
  Q 184.17 878.40 185.26 878.06
  Q 185.26 879.07 184.76 880.05
  L 102.42 846.12
  Q 102.34 846.09 102.43 846.09
  L 163.28 850.88
  Z"
/>
<path fill="#f0efe7" d="
  M 1217.97 880.03
  Q 1217.47 880.05 1217.35 878.99
  L 1218.31 878.91
  A 0.66 0.66 0.0 0 0 1218.89 878.39
  C 1219.08 877.45 1219.13 876.68 1219.72 875.92
  Q 1228.82 864.15 1238.08 852.52
  C 1238.61 851.85 1238.79 850.97 1239.47 850.28
  Q 1239.40 850.54 1239.43 850.60
  A 0.57 0.56 74.7 0 0 1240.00 850.93
  L 1299.48 846.19
  Q 1300.91 846.07 1299.58 846.62
  L 1217.97 880.03
  Z"
/>
<path fill="#833231" d="
  M 955.79 846.26
  C 955.81 849.06 955.44 851.20 956.99 853.63
  Q 958.07 855.32 959.22 856.95
  L 947.76 866.76
  Q 947.41 867.06 946.95 867.00
  L 930.59 864.77
  Q 929.62 864.64 930.39 864.03
  L 933.02 861.94
  L 955.79 846.26
  Z"
/>
<path fill="#f43a2d" d="
  M 710.28 928.28
  Q 709.70 929.22 709.08 929.67
  Q 708.61 930.02 708.23 929.56
  L 706.72 927.76
  L 652.61 865.99
  A 0.21 0.21 0.0 0 1 652.77 865.64
  L 676.81 865.44
  L 727.29 865.01
  L 762.63 864.69
  Q 763.39 864.68 762.90 865.26
  L 710.28 928.28
  Z"
/>
<path fill="#f0efe7" d="
  M 183.76 887.06
  L 176.53 931.53
  A 0.26 0.26 0.0 0 1 176.09 931.67
  L 175.01 930.65
  Q 174.61 930.28 174.12 930.49
  L 147.55 942.31
  C 143.18 937.37 136.96 932.20 133.88 926.45
  Q 122.22 904.74 110.65 883.07
  A 0.27 0.27 0.0 0 1 110.91 882.67
  L 183.76 887.06
  Z"
/>
<path fill="#f0efe7" d="
  M 1254.56 942.90
  L 1228.43 930.93
  Q 1227.95 930.71 1227.55 931.06
  L 1226.62 931.87
  Q 1226.04 932.38 1225.91 931.61
  L 1218.64 887.06
  L 1291.61 882.66
  Q 1292.26 882.62 1291.95 883.19
  Q 1280.56 904.47 1269.01 926.06
  Q 1267.32 929.22 1264.76 931.90
  Q 1259.69 937.19 1254.56 942.90
  Z"
/>
<path fill="#f9f8f8" d="
  M 548.07 899.53
  L 550.34 924.04
  Q 536.91 922.85 523.42 919.43
  L 548.07 899.53
  Z"
/>
<path fill="#cccccc" d="
  M 432.43 907.08
  L 523.42 919.43
  Q 536.91 922.85 550.34 924.04
  L 610.85 933.08
  L 610.81 933.95
  Q 609.94 933.42 609.58 933.37
  C 600.33 932.24 588.71 931.13 576.49 929.61
  Q 563.70 928.01 550.66 926.97
  Q 502.63 921.72 454.25 916.61
  Q 453.82 916.56 453.47 916.99
  Q 453.30 916.75 453.06 916.56
  Q 452.86 916.39 452.52 916.35
  C 445.38 915.54 437.03 913.79 429.92 914.98
  Q 331.46 931.46 232.98 947.91
  Q 230.59 948.31 228.58 949.66
  Q 203.11 966.69 177.69 983.92
  L 139.86 1009.47
  Q 139.70 1009.58 139.58 1009.42
  L 139.58 1009.42
  Q 139.46 1009.26 139.62 1009.13
  L 171.77 983.45
  L 227.86 938.69
  A 3.54 3.51 21.3 0 1 229.54 937.96
  L 432.43 907.08
  Z"
/>
<path fill="#f9f8f8" d="
  M 951.73 909.40
  L 949.61 915.48
  Q 949.67 915.98 949.00 916.08
  Q 908.01 922.08 866.50 928.12
  Q 866.21 919.20 868.12 910.59
  L 878.56 918.95
  Q 878.96 919.27 879.47 919.20
  L 951.73 909.40
  Z"
/>
<path fill="#cccccc" d="
  M 1234.31 983.47
  L 1272.75 1014.18
  Q 1272.89 1014.30 1272.79 1014.44
  L 1272.78 1014.45
  Q 1272.68 1014.59 1272.53 1014.49
  L 1227.53 984.10
  L 1181.80 953.26
  A 1.83 1.77 65.4 0 0 1181.06 952.97
  L 979.65 919.29
  Q 978.16 919.04 976.65 919.20
  L 947.23 922.37
  L 865.82 931.18
  L 801.05 938.40
  Q 800.55 938.26 800.46 937.75
  L 866.50 928.12
  Q 908.01 922.08 949.00 916.08
  Q 949.67 915.98 949.61 915.48
  Q 949.70 915.72 949.83 915.84
  Q 949.94 915.93 950.20 915.90
  Q 962.61 914.06 975.05 912.25
  Q 978.50 911.74 981.97 912.27
  Q 1082.45 927.52 1182.37 942.70
  Q 1183.43 942.86 1184.27 943.53
  L 1234.31 983.47
  Z"
/>
<path fill="#574d4e" d="
  M 453.47 916.99
  L 462.09 941.25
  L 408.59 933.49
  Q 407.95 933.40 407.32 933.57
  L 210.36 987.08
  L 185.88 984.88
  L 177.69 983.92
  Q 203.11 966.69 228.58 949.66
  Q 230.59 948.31 232.98 947.91
  Q 331.46 931.46 429.92 914.98
  C 437.03 913.79 445.38 915.54 452.52 916.35
  Q 452.86 916.39 453.06 916.56
  Q 453.30 916.75 453.47 916.99
  Z"
/>
<path fill="#f9f8f8" d="
  M 550.66 926.97
  L 552.83 954.73
  L 462.09 941.25
  L 453.47 916.99
  Q 453.82 916.56 454.25 916.61
  Q 502.63 921.72 550.66 926.97
  Z"
/>
<path fill="#f8b368" d="
  M 1227.53 984.10
  Q 1222.18 984.71 1217.00 985.22
  Q 1216.55 985.27 1216.05 985.77
  Q 1215.95 985.67 1215.91 985.56
  Q 1215.84 985.37 1215.64 985.39
  L 1187.88 988.30
  L 1005.08 938.85
  A 5.26 5.20 47.9 0 0 1002.96 938.73
  L 938.04 948.21
  L 947.23 922.37
  L 976.65 919.20
  Q 978.16 919.04 979.65 919.29
  L 1181.06 952.97
  A 1.83 1.77 65.4 0 1 1181.80 953.26
  L 1227.53 984.10
  Z"
/>
<path fill="#f9f8f8" d="
  M 947.23 922.37
  L 938.04 948.21
  L 863.61 959.17
  L 865.82 931.18
  L 947.23 922.37
  Z"
/>
<path fill="#f8b368" d="
  M 610.81 933.95
  L 610.85 933.08
  L 614.60 928.27
  Q 614.93 927.84 615.29 928.24
  L 620.49 933.96
  Q 620.71 934.20 620.49 934.44
  L 616.03 939.18
  Q 615.82 939.39 615.62 939.17
  L 610.81 933.95
  Z"
/>
<path fill="#833231" d="
  M 706.01 928.72
  L 705.06 1012.09
  Q 705.17 1013.27 704.71 1013.37
  Q 666.62 1021.26 627.51 1029.51
  L 614.84 1032.11
  Q 614.32 1032.21 613.88 1031.93
  L 533.69 981.44
  Q 533.63 981.32 534.06 981.06
  Q 574.35 996.00 614.72 1010.77
  C 616.73 1011.51 618.08 1011.01 620.01 1010.45
  L 688.15 994.45
  Q 688.54 994.36 688.64 993.96
  Q 697.14 960.99 705.58 927.99
  Q 705.61 927.88 705.74 927.86
  Q 705.82 927.85 705.80 928.00
  Q 705.75 928.33 706.01 928.72
  Z"
/>
<path fill="#f9f8f8" d="
  M 706.72 927.76
  L 708.23 929.56
  Q 708.61 930.02 709.08 929.67
  Q 709.70 929.22 710.28 928.28
  L 711.21 928.54
  L 716.06 1011.20
  Q 711.43 1012.63 705.06 1012.09
  L 706.01 928.72
  Q 706.32 928.75 706.72 927.76
  Z"
/>
<path fill="#833231" d="
  M 793.60 1008.82
  Q 797.53 1009.90 800.35 1010.43
  Q 802.40 1010.83 804.55 1010.05
  Q 835.84 998.71 867.98 986.48
  L 878.36 984.95
  L 804.62 1031.45
  Q 804.17 1031.73 803.66 1031.63
  L 793.46 1029.55
  L 716.78 1013.44
  Q 716.27 1013.33 716.22 1012.81
  L 716.06 1011.20
  L 711.21 928.54
  Q 711.21 928.27 711.32 928.17
  Q 711.51 928.00 711.57 928.25
  L 725.72 993.45
  Q 725.81 993.85 726.21 993.94
  L 793.60 1008.82
  Z"
/>
<path fill="#f8b368" d="
  M 800.46 937.75
  Q 800.55 938.26 801.05 938.40
  L 795.82 943.91
  Q 795.64 944.10 795.46 943.91
  L 790.91 938.98
  Q 790.76 938.83 790.91 938.67
  L 796.18 932.93
  A 0.41 0.41 0.0 0 1 796.81 932.96
  L 800.46 937.75
  Z"
/>
<path fill="#cccccc" d="
  M 462.09 941.25
  L 552.83 954.73
  L 585.27 959.34
  Q 584.71 959.95 584.67 960.30
  Q 584.53 959.89 583.74 959.81
  Q 568.82 958.20 553.28 956.29
  L 465.40 946.88
  Q 465.02 946.84 464.70 947.05
  Q 464.50 947.19 464.24 947.22
  Q 464.04 946.98 463.84 946.82
  Q 463.64 946.65 463.31 946.62
  Q 436.04 943.70 409.17 940.78
  A 4.09 3.98 39.6 0 0 407.68 940.90
  L 226.78 988.80
  Q 223.49 989.60 220.02 990.54
  Q 217.32 991.28 215.03 992.97
  Q 208.88 997.52 202.78 1002.14
  C 202.35 1002.47 202.35 1002.69 202.01 1003.10
  L 141.40 1048.42
  Q 141.30 1048.49 141.22 1048.40
  L 141.22 1048.39
  Q 141.14 1048.30 141.23 1048.22
  Q 169.57 1023.69 197.96 999.20
  Q 198.28 998.92 197.74 998.26
  Q 198.61 998.56 199.02 998.21
  Q 204.59 993.34 210.19 988.49
  Q 210.76 988.00 210.36 987.08
  L 407.32 933.57
  Q 407.95 933.40 408.59 933.49
  L 462.09 941.25
  Z"
/>
<path fill="#cccccc" d="
  M 1187.88 988.30
  Q 1192.53 989.86 1197.08 990.99
  C 1200.48 991.84 1202.68 994.42 1205.10 996.71
  Q 1205.38 996.98 1206.28 996.77
  Q 1205.64 997.12 1206.17 997.58
  Q 1238.49 1025.50 1270.78 1053.44
  Q 1270.88 1053.53 1270.79 1053.63
  L 1270.79 1053.63
  Q 1270.71 1053.73 1270.60 1053.65
  Q 1236.43 1027.86 1202.23 1002.07
  Q 1201.96 1001.86 1201.75 1001.92
  Q 1201.50 1001.99 1201.32 1002.30
  Q 1201.34 1001.40 1200.92 1001.05
  C 1198.39 998.99 1195.41 996.61 1191.80 995.62
  Q 1180.40 992.50 1169.26 990.04
  L 1004.58 946.13
  Q 1003.56 945.86 1002.51 945.98
  Q 969.75 949.56 936.50 953.09
  Q 936.19 953.13 936.11 953.52
  Q 935.99 953.16 935.25 953.24
  C 911.26 955.86 887.25 958.31 863.28 961.11
  L 826.79 965.10
  Q 826.51 965.28 826.71 964.50
  L 863.61 959.17
  L 938.04 948.21
  L 1002.96 938.73
  A 5.26 5.20 47.9 0 1 1005.08 938.85
  L 1187.88 988.30
  Z"
/>
<path fill="#574d4e" d="
  M 464.24 947.22
  L 471.30 967.02
  Q 471.41 967.71 469.99 967.50
  Q 452.13 964.87 434.68 962.29
  A 7.92 7.89 43.8 0 0 432.09 962.34
  Q 350.29 977.58 268.29 992.86
  Q 267.56 993.00 266.72 992.94
  Q 265.60 992.86 265.12 992.95
  L 226.78 988.80
  L 407.68 940.90
  A 4.09 3.98 39.6 0 1 409.17 940.78
  Q 436.04 943.70 463.31 946.62
  Q 463.64 946.65 463.84 946.82
  Q 464.04 946.98 464.24 947.22
  Z"
/>
<path fill="#f8b368" d="
  M 1169.26 990.04
  L 1127.25 994.44
  L 979.56 967.11
  A 9.39 9.36 -44.0 0 0 976.43 967.06
  L 928.81 974.05
  L 936.11 953.52
  Q 936.19 953.13 936.50 953.09
  Q 969.75 949.56 1002.51 945.98
  Q 1003.56 945.86 1004.58 946.13
  L 1169.26 990.04
  Z"
/>
<path fill="#f9f8f8" d="
  M 553.28 956.29
  L 554.69 976.06
  A 1.47 1.47 0.0 0 0 555.78 977.38
  Q 559.76 978.45 561.30 980.80
  Q 517.09 974.37 473.50 967.99
  Q 472.19 967.80 471.30 967.02
  L 464.24 947.22
  Q 464.50 947.19 464.70 947.05
  Q 465.02 946.84 465.40 946.88
  L 553.28 956.29
  Z"
/>
<path fill="#f9f8f8" d="
  M 936.11 953.52
  L 928.81 974.05
  L 837.45 987.22
  Q 849.85 980.10 862.00 974.68
  A 0.65 0.64 -10.5 0 0 862.37 974.15
  L 863.28 961.11
  C 887.25 958.31 911.26 955.86 935.25 953.24
  Q 935.99 953.16 936.11 953.52
  Z"
/>
<path fill="#f8b368" d="
  M 584.67 960.30
  Q 584.71 959.95 585.27 959.34
  L 588.66 955.15
  Q 589.04 954.67 589.45 955.12
  L 594.66 960.82
  Q 594.80 960.98 594.66 961.13
  L 590.20 966.01
  Q 589.98 966.25 589.77 966.01
  L 584.67 960.30
  Z"
/>
<path fill="#f8b368" d="
  M 826.71 964.50
  Q 826.51 965.28 826.79 965.10
  L 821.72 970.68
  A 0.32 0.31 -44.4 0 1 821.25 970.68
  L 816.86 965.85
  Q 816.67 965.64 816.86 965.44
  L 822.21 959.63
  A 0.26 0.26 0.0 0 1 822.60 959.64
  L 826.71 964.50
  Z"
/>
<path fill="#cccccc" d="
  M 471.30 967.02
  Q 472.19 967.80 473.50 967.99
  Q 517.09 974.37 561.30 980.80
  L 610.81 988.17
  Q 610.99 988.41 610.78 988.98
  Q 609.09 988.34 608.50 988.28
  Q 590.69 986.20 571.36 984.51
  L 533.62 980.28
  A 0.20 0.20 0.0 0 0 533.40 980.54
  Q 533.58 981.10 534.06 981.06
  Q 533.63 981.32 533.69 981.44
  C 532.47 980.77 531.79 979.97 530.31 979.81
  Q 502.42 976.81 474.53 973.80
  Q 474.21 973.76 474.01 974.01
  Q 473.93 974.12 473.85 974.24
  Q 474.00 973.75 473.25 973.67
  Q 454.01 971.57 434.99 969.51
  Q 433.83 969.39 432.67 969.62
  Q 366.83 982.68 300.65 995.80
  Q 300.39 995.85 300.13 996.01
  Q 299.90 996.15 299.66 996.28
  Q 299.43 996.40 299.67 996.48
  Q 299.81 996.52 299.96 996.58
  C 298.58 996.69 297.37 996.44 296.03 996.71
  Q 287.47 998.42 279.00 1000.10
  Q 268.24 1002.23 257.52 1004.37
  Q 254.96 1004.88 252.80 1006.36
  Q 237.97 1016.51 223.04 1026.80
  L 165.86 1065.93
  Q 165.75 1066.00 165.68 1065.90
  L 165.68 1065.90
  Q 165.60 1065.79 165.70 1065.71
  L 218.80 1022.02
  Q 218.97 1021.94 219.12 1021.90
  Q 219.40 1021.82 219.63 1021.64
  L 250.60 996.30
  A 2.24 2.19 19.1 0 1 251.53 995.86
  L 265.12 992.95
  Q 265.60 992.86 266.72 992.94
  Q 267.56 993.00 268.29 992.86
  Q 350.29 977.58 432.09 962.34
  A 7.92 7.89 43.8 0 1 434.68 962.29
  Q 452.13 964.87 469.99 967.50
  Q 471.41 967.71 471.30 967.02
  Z"
/>
<path fill="#cccccc" d="
  M 1127.25 994.44
  Q 1143.04 997.67 1158.50 1000.42
  Q 1160.53 1000.78 1162.11 1002.07
  Q 1173.20 1011.05 1184.20 1020.10
  Q 1184.58 1020.41 1185.30 1020.32
  Q 1184.96 1020.78 1185.38 1021.12
  Q 1215.60 1045.77 1245.79 1070.42
  Q 1245.89 1070.50 1245.82 1070.60
  L 1245.81 1070.61
  Q 1245.74 1070.71 1245.63 1070.64
  L 1180.28 1026.01
  Q 1169.42 1018.33 1158.60 1011.03
  Q 1156.43 1009.57 1153.86 1009.06
  Q 1137.67 1005.85 1121.57 1002.65
  L 1099.70 998.31
  L 979.17 974.39
  Q 977.68 974.10 976.18 974.26
  Q 951.66 976.91 927.14 979.55
  Q 927.04 979.56 926.97 979.63
  Q 926.88 979.74 926.77 979.80
  L 878.36 984.95
  L 867.98 986.48
  Q 848.11 987.53 829.88 990.32
  Q 811.91 991.90 801.50 993.14
  Q 801.00 993.20 800.79 994.04
  Q 800.79 993.66 800.30 992.70
  L 837.45 987.22
  L 928.81 974.05
  L 976.43 967.06
  A 9.39 9.36 -44.0 0 1 979.56 967.11
  L 1127.25 994.44
  Z"
/>
<path fill="#574d4e" d="
  M 473.85 974.24
  L 487.44 1012.46
  Q 487.61 1012.95 487.32 1013.39
  L 411.02 1129.30
  Q 410.27 1127.88 409.41 1127.20
  Q 355.61 1061.88 302.03 996.96
  Q 301.38 996.18 299.96 996.58
  Q 299.81 996.52 299.67 996.48
  Q 299.43 996.40 299.66 996.28
  Q 299.90 996.15 300.13 996.01
  Q 300.39 995.85 300.65 995.80
  Q 366.83 982.68 432.67 969.62
  Q 433.83 969.39 434.99 969.51
  Q 454.01 971.57 473.25 973.67
  Q 474.00 973.75 473.85 974.24
  Z"
/>
<path fill="#f9f8f8" d="
  M 533.69 981.44
  L 613.88 1031.93
  Q 614.32 1032.21 614.84 1032.11
  L 627.51 1029.51
  L 703.69 1103.69
  A 0.89 0.89 0.0 0 0 704.88 1103.74
  L 793.46 1029.55
  L 803.66 1031.63
  Q 804.17 1031.73 804.62 1031.45
  L 878.36 984.95
  L 926.77 979.80
  L 915.02 1012.80
  A 1.21 1.19 38.5 0 0 915.15 1013.88
  L 991.18 1129.38
  L 936.57 1172.19
  A 2.47 2.45 25.1 0 1 935.06 1172.73
  C 901.35 1173.28 867.53 1173.17 833.75 1173.93
  C 831.27 1173.98 829.97 1175.49 827.25 1175.54
  Q 812.50 1175.83 797.75 1175.62
  Q 751.21 1174.96 703.60 1174.65
  Q 729.40 1156.98 754.17 1140.26
  Q 754.65 1139.93 753.84 1140.31
  Q 728.23 1152.38 702.44 1164.59
  A 0.46 0.44 -39.2 0 1 701.99 1164.55
  L 654.61 1132.70
  Q 654.59 1132.69 654.58 1132.70
  L 654.39 1132.95
  Q 654.24 1133.15 654.42 1133.31
  L 700.45 1174.58
  Q 688.30 1174.85 677.00 1174.96
  Q 626.25 1175.42 575.50 1175.63
  C 573.97 1175.64 573.40 1175.60 571.93 1174.82
  C 568.80 1173.16 563.03 1173.66 559.50 1173.64
  Q 513.61 1173.30 467.77 1172.79
  A 3.08 3.08 0.0 0 1 465.88 1172.12
  L 411.02 1129.30
  L 487.32 1013.39
  Q 487.61 1012.95 487.44 1012.46
  L 473.85 974.24
  Q 473.93 974.12 474.01 974.01
  Q 474.21 973.76 474.53 973.80
  Q 502.42 976.81 530.31 979.81
  C 531.79 979.97 532.47 980.77 533.69 981.44
  Z"
/>
<path fill="#f8b368" d="
  M 1099.70 998.31
  L 994.66 1125.67
  L 991.18 1129.38
  L 915.15 1013.88
  A 1.21 1.19 38.5 0 1 915.02 1012.80
  L 926.77 979.80
  Q 926.88 979.74 926.97 979.63
  Q 927.04 979.56 927.14 979.55
  Q 951.66 976.91 976.18 974.26
  Q 977.68 974.10 979.17 974.39
  L 1099.70 998.31
  Z"
/>
<path fill="#f9f8f8" d="
  M 571.36 984.51
  Q 585.53 992.00 619.80 1008.94
  Q 620.81 1009.43 620.01 1010.45
  C 618.08 1011.01 616.73 1011.51 614.72 1010.77
  Q 574.35 996.00 534.06 981.06
  Q 533.58 981.10 533.40 980.54
  A 0.20 0.20 0.0 0 1 533.62 980.28
  L 571.36 984.51
  Z"
/>
<path fill="#f8b368" d="
  M 610.78 988.98
  Q 610.99 988.41 610.81 988.17
  L 614.38 983.55
  Q 614.92 982.86 615.51 983.51
  L 620.47 989.02
  Q 620.67 989.24 620.47 989.46
  L 615.99 994.29
  Q 615.77 994.52 615.55 994.28
  L 610.78 988.98
  Z"
/>
<path fill="#f0efe7" d="
  M 210.36 987.08
  Q 210.76 988.00 210.19 988.49
  Q 204.59 993.34 199.02 998.21
  Q 198.61 998.56 197.74 998.26
  L 185.88 984.88
  L 210.36 987.08
  Z"
/>
<path fill="#f0efe7" d="
  M 1216.05 985.77
  L 1206.28 996.77
  Q 1205.38 996.98 1205.10 996.71
  C 1202.68 994.42 1200.48 991.84 1197.08 990.99
  Q 1192.53 989.86 1187.88 988.30
  L 1215.64 985.39
  Q 1215.84 985.37 1215.91 985.56
  Q 1215.95 985.67 1216.05 985.77
  Z"
/>
<path fill="#f9f8f8" d="
  M 867.98 986.48
  Q 835.84 998.71 804.55 1010.05
  Q 802.40 1010.83 800.35 1010.43
  Q 797.53 1009.90 793.60 1008.82
  L 829.88 990.32
  Q 848.11 987.53 867.98 986.48
  Z"
/>
<path fill="#f8b368" d="
  M 800.30 992.70
  Q 800.79 993.66 800.79 994.04
  L 795.83 999.43
  Q 795.64 999.64 795.45 999.43
  L 790.89 994.56
  A 0.25 0.25 0.0 0 1 790.89 994.21
  L 796.07 988.66
  A 0.66 0.66 0.0 0 1 797.06 988.69
  L 800.30 992.70
  Z"
/>
<path fill="#f0efe7" d="
  M 226.78 988.80
  L 265.12 992.95
  L 251.53 995.86
  A 2.24 2.19 19.1 0 0 250.60 996.30
  L 219.63 1021.64
  Q 219.40 1021.82 219.12 1021.90
  Q 218.97 1021.94 218.80 1022.02
  L 202.01 1003.10
  C 202.35 1002.69 202.35 1002.47 202.78 1002.14
  Q 208.88 997.52 215.03 992.97
  Q 217.32 991.28 220.02 990.54
  Q 223.49 989.60 226.78 988.80
  Z"
/>
<path fill="#f0efe7" d="
  M 1169.26 990.04
  Q 1180.40 992.50 1191.80 995.62
  C 1195.41 996.61 1198.39 998.99 1200.92 1001.05
  Q 1201.34 1001.40 1201.32 1002.30
  L 1185.30 1020.32
  Q 1184.58 1020.41 1184.20 1020.10
  Q 1173.20 1011.05 1162.11 1002.07
  Q 1160.53 1000.78 1158.50 1000.42
  Q 1143.04 997.67 1127.25 994.44
  L 1169.26 990.04
  Z"
/>
<path fill="#f9f8f8" d="
  M 299.96 996.58
  Q 301.38 996.18 302.03 996.96
  Q 355.61 1061.88 409.41 1127.20
  Q 406.92 1126.79 404.46 1124.59
  Q 401.06 1121.55 400.98 1121.49
  Q 365.83 1094.09 331.22 1067.11
  Q 329.76 1065.97 328.64 1064.51
  L 279.00 1000.10
  Q 287.47 998.42 296.03 996.71
  C 297.37 996.44 298.58 996.69 299.96 996.58
  Z"
/>
<path fill="#f9f8f8" d="
  M 1099.70 998.31
  L 1121.57 1002.65
  Q 1098.31 1032.76 1075.21 1062.75
  Q 1072.73 1065.97 1069.52 1068.47
  Q 1034.67 1095.63 999.88 1122.88
  Q 998.12 1124.26 996.48 1125.76
  Q 996.04 1126.16 995.63 1126.18
  Q 994.95 1126.21 994.66 1125.67
  L 1099.70 998.31
  Z"
/>
<path fill="#f0efe7" d="
  M 279.00 1000.10
  L 328.64 1064.51
  Q 329.76 1065.97 331.22 1067.11
  Q 365.83 1094.09 400.98 1121.49
  Q 401.06 1121.55 404.46 1124.59
  Q 406.92 1126.79 409.41 1127.20
  Q 410.27 1127.88 411.02 1129.30
  L 465.88 1172.12
  A 3.08 3.08 0.0 0 0 467.77 1172.79
  Q 513.61 1173.30 559.50 1173.64
  C 563.03 1173.66 568.80 1173.16 571.93 1174.82
  C 573.40 1175.60 573.97 1175.64 575.50 1175.63
  Q 626.25 1175.42 677.00 1174.96
  Q 688.30 1174.85 700.45 1174.58
  L 701.43 1175.36
  Q 701.83 1175.68 702.26 1175.42
  L 703.60 1174.65
  Q 751.21 1174.96 797.75 1175.62
  Q 812.50 1175.83 827.25 1175.54
  C 829.97 1175.49 831.27 1173.98 833.75 1173.93
  C 867.53 1173.17 901.35 1173.28 935.06 1172.73
  A 2.47 2.45 25.1 0 0 936.57 1172.19
  L 991.18 1129.38
  L 994.66 1125.67
  Q 994.95 1126.21 995.63 1126.18
  Q 996.04 1126.16 996.48 1125.76
  Q 998.12 1124.26 999.88 1122.88
  Q 1034.67 1095.63 1069.52 1068.47
  Q 1072.73 1065.97 1075.21 1062.75
  Q 1098.31 1032.76 1121.57 1002.65
  Q 1137.67 1005.85 1153.86 1009.06
  Q 1156.43 1009.57 1158.60 1011.03
  Q 1169.42 1018.33 1180.28 1026.01
  Q 1127.45 1085.70 1075.25 1144.82
  Q 1072.58 1147.84 1069.25 1150.11
  Q 1002.76 1195.42 936.45 1240.61
  A 2.98 2.96 -62.2 0 1 934.82 1241.12
  Q 895.09 1241.47 855.25 1241.75
  C 840.20 1241.86 823.03 1243.64 804.83 1243.43
  Q 702.41 1242.27 599.99 1243.41
  C 581.82 1243.61 563.80 1241.83 545.65 1241.68
  Q 506.46 1241.37 467.40 1241.16
  A 1.64 1.63 62.4 0 1 466.52 1240.88
  Q 399.84 1195.46 333.14 1149.95
  Q 329.82 1147.68 327.15 1144.65
  Q 275.39 1085.90 223.04 1026.80
  Q 237.97 1016.51 252.80 1006.36
  Q 254.96 1004.88 257.52 1004.37
  Q 268.24 1002.23 279.00 1000.10
  Z"
/>
<path fill="#f0efe7" d="
  M 716.06 1011.20
  L 716.22 1012.81
  Q 716.27 1013.33 716.78 1013.44
  L 793.46 1029.55
  L 704.88 1103.74
  A 0.89 0.89 0.0 0 1 703.69 1103.69
  L 627.51 1029.51
  Q 666.62 1021.26 704.71 1013.37
  Q 705.17 1013.27 705.06 1012.09
  Q 711.43 1012.63 716.06 1011.20
  Z"
/>
<path fill="#f8b368" d="
  M 703.60 1174.65
  L 702.26 1175.42
  Q 701.83 1175.68 701.43 1175.36
  L 700.45 1174.58
  L 654.42 1133.31
  Q 654.24 1133.15 654.39 1132.95
  L 654.58 1132.70
  Q 654.59 1132.69 654.61 1132.70
  L 701.99 1164.55
  A 0.46 0.44 -39.2 0 0 702.44 1164.59
  Q 728.23 1152.38 753.84 1140.31
  Q 754.65 1139.93 754.17 1140.26
  Q 729.40 1156.98 703.60 1174.65
  Z"
/>
</svg>
