<svg width="20" height="21" viewBox="0 0 20 21" fill="none" xmlns="http://www.w3.org/2000/svg">
<g clip-path="url(#clip0_3_35)">
<path d="M19.9894 10.4248C19.9894 9.58628 19.9213 8.97439 19.7741 8.33984H10.1992V12.1245H15.8194C15.7062 13.065 15.0943 14.4814 13.7345 15.4332L13.7154 15.5599L16.7428 17.9052L16.9526 17.9262C18.8789 16.1471 19.9894 13.5296 19.9894 10.4248Z" fill="#4285F4"/>
<path d="M10.1992 20.3964C12.9527 20.3964 15.2642 19.4898 16.9526 17.9261L13.7345 15.4332C12.8734 16.0338 11.7176 16.453 10.1992 16.453C7.50237 16.453 5.21346 14.6741 4.39753 12.2152L4.27793 12.2253L1.12997 14.6616L1.08881 14.776C2.76582 18.1074 6.21054 20.3964 10.1992 20.3964Z" fill="#34A853"/>
<path d="M4.39755 12.2152C4.18226 11.5806 4.05766 10.9007 4.05766 10.1982C4.05766 9.49562 4.18226 8.81576 4.38622 8.18122L4.38052 8.04608L1.19311 5.5707L1.08882 5.62031C0.397638 7.00274 0.0010376 8.55517 0.0010376 10.1982C0.0010376 11.8412 0.397638 13.3936 1.08882 14.776L4.39755 12.2152Z" fill="#FBBC05"/>
<path d="M10.1992 3.94326C12.1141 3.94326 13.4059 4.77044 14.1424 5.4617L17.0206 2.65152C15.253 1.00849 12.9526 0 10.1992 0C6.21054 0 2.76582 2.2889 1.08881 5.62028L4.3862 8.18118C5.21345 5.7223 7.50236 3.94326 10.1992 3.94326Z" fill="#EB4335"/>
</g>
<defs>
<clipPath id="clip0_3_35">
<rect width="20" height="20.4667" fill="white"/>
</clipPath>
</defs>
</svg>
